<?xml version="1.0" standalone="no"?>
<!DOCTYPE svg PUBLIC "-//W3C//DTD SVG 20010904//EN"
 "http://www.w3.org/TR/2001/REC-SVG-20010904/DTD/svg10.dtd">
<svg version="1.0" xmlns="http://www.w3.org/2000/svg"
 width="900.000000pt" height="900.000000pt" viewBox="0 0 900.000000 900.000000"
 preserveAspectRatio="xMidYMid meet">
<metadata>
Created by potrace 1.10, written by Peter Selinger 2001-2011
</metadata>
<g transform="translate(0.000000,900.000000) scale(0.100000,-0.100000)"
fill="#ff0000" stroke="none">
<path d="M4120 8524 c-63 -7 -151 -19 -195 -25 -44 -6 -107 -15 -140 -19 -33
-4 -73 -13 -88 -19 -16 -6 -45 -11 -65 -11 -20 -1 -48 -7 -62 -15 -14 -8 -38
-14 -55 -15 -27 0 -69 -11 -160 -42 -16 -5 -47 -13 -68 -18 -21 -4 -44 -13
-50 -19 -6 -6 -23 -11 -37 -11 -14 0 -35 -7 -46 -15 -10 -8 -27 -15 -36 -15
-17 0 -67 -19 -121 -46 -16 -8 -35 -14 -42 -14 -12 0 -51 -17 -95 -42 -8 -4
-22 -11 -30 -14 -27 -10 -85 -36 -100 -45 -8 -5 -22 -12 -30 -15 -8 -3 -22
-10 -30 -15 -8 -5 -22 -12 -30 -15 -8 -3 -22 -10 -30 -15 -8 -5 -28 -15 -45
-23 -16 -8 -52 -29 -80 -45 -27 -17 -59 -35 -70 -41 -32 -17 -55 -32 -133 -85
-41 -28 -81 -54 -90 -60 -31 -19 -217 -159 -272 -205 -30 -25 -68 -57 -85 -70
-39 -32 -373 -366 -405 -405 -13 -17 -45 -55 -70 -85 -46 -55 -186 -241 -205
-272 -5 -9 -32 -49 -60 -90 -53 -78 -68 -101 -85 -133 -6 -11 -24 -42 -41 -70
-16 -27 -37 -63 -45 -80 -14 -29 -22 -44 -44 -82 -6 -10 -13 -25 -16 -33 -3
-8 -10 -22 -15 -30 -5 -8 -12 -22 -15 -30 -11 -29 -37 -85 -46 -100 -4 -8 -11
-22 -14 -30 -3 -8 -12 -28 -20 -43 -7 -16 -14 -35 -14 -42 0 -7 -6 -26 -14
-42 -27 -54 -46 -104 -46 -121 0 -9 -7 -26 -15 -36 -8 -11 -15 -31 -15 -46 0
-14 -6 -34 -14 -45 -7 -11 -16 -33 -18 -50 -3 -16 -10 -43 -16 -60 -30 -87
-42 -133 -42 -160 -1 -16 -7 -41 -15 -55 -8 -14 -14 -42 -15 -62 0 -20 -5 -49
-11 -65 -6 -15 -15 -55 -19 -88 -4 -33 -12 -94 -18 -135 -31 -209 -37 -302
-37 -570 0 -268 6 -361 37 -570 6 -41 14 -102 18 -135 4 -33 13 -73 19 -88 6
-16 11 -45 11 -65 1 -20 7 -48 15 -62 8 -14 14 -38 15 -55 0 -27 11 -69 42
-160 5 -16 13 -47 18 -68 4 -21 13 -44 19 -50 6 -6 11 -23 11 -37 0 -14 7 -35
15 -46 8 -10 15 -27 15 -36 0 -17 19 -67 46 -121 8 -16 14 -35 14 -42 0 -12
17 -51 42 -95 4 -8 11 -22 14 -30 10 -27 36 -85 45 -100 5 -8 12 -22 15 -30 3
-8 10 -22 15 -30 5 -8 12 -22 15 -30 3 -8 10 -22 15 -30 5 -8 15 -28 23 -45 8
-16 29 -52 45 -80 17 -27 35 -59 41 -70 17 -32 32 -55 85 -133 28 -41 55 -81
60 -90 18 -30 158 -217 189 -253 17 -19 49 -58 71 -85 51 -63 375 -387 439
-439 27 -22 66 -54 85 -71 36 -31 223 -171 253 -189 9 -5 49 -32 90 -60 78
-53 101 -68 133 -85 11 -6 43 -24 70 -41 28 -16 64 -37 80 -45 32 -15 48 -24
80 -42 11 -7 27 -15 35 -18 8 -3 22 -10 30 -15 8 -5 22 -12 30 -15 26 -10 144
-65 173 -80 16 -8 35 -14 42 -14 7 0 26 -6 42 -14 54 -27 104 -46 121 -46 9 0
26 -7 36 -15 11 -8 32 -15 46 -15 14 0 31 -5 37 -11 6 -6 29 -15 50 -19 21 -5
52 -13 68 -18 91 -31 133 -42 160 -42 17 -1 41 -7 55 -15 14 -8 41 -14 61 -15
20 0 56 -7 79 -15 23 -8 59 -15 79 -15 20 0 52 -5 71 -10 19 -6 82 -15 140
-20 58 -6 139 -14 180 -20 100 -12 526 -12 620 1 41 5 118 14 170 19 107 10
213 26 280 42 25 6 68 14 95 19 28 4 70 13 95 19 103 27 157 42 185 52 17 6
44 13 60 16 17 2 39 11 50 18 11 8 31 14 45 14 15 0 35 7 46 15 10 8 27 15 36
15 17 0 67 19 121 46 16 8 35 14 42 14 12 0 51 17 95 42 8 4 22 11 30 14 27
10 85 36 100 45 8 5 22 12 30 15 8 3 22 10 30 15 8 5 22 12 30 15 8 3 22 10
30 15 8 5 29 15 45 23 17 8 53 29 80 45 28 17 59 35 70 41 32 17 55 32 133 85
41 28 81 55 90 60 31 19 217 159 272 205 30 25 68 57 85 70 39 32 373 366 405
405 95 115 123 149 177 221 59 78 203 288 217 315 3 8 15 28 26 44 11 17 24
39 30 50 5 11 26 47 45 80 19 33 38 67 41 75 3 8 10 22 15 30 5 8 12 22 15 30
3 8 10 22 15 30 5 8 12 22 15 30 11 29 37 85 46 100 4 8 11 22 14 30 3 8 12
28 20 43 7 16 14 35 14 42 0 7 6 26 14 42 27 54 46 104 46 121 0 9 7 26 15 36
8 11 15 31 15 46 0 14 6 34 14 45 7 11 16 34 18 50 3 17 10 44 16 60 29 87 42
135 42 159 0 15 5 37 12 49 7 12 15 45 19 72 3 28 11 70 17 95 16 67 32 173
42 280 5 52 14 129 19 170 14 99 14 512 0 620 -5 47 -14 126 -19 175 -10 103
-26 210 -42 275 -6 25 -14 68 -17 95 -4 28 -12 60 -19 72 -7 12 -12 34 -12 50
0 25 -11 67 -42 158 -5 17 -13 47 -18 68 -4 21 -13 44 -19 50 -6 6 -11 23 -11
37 0 14 -7 35 -15 46 -8 10 -15 27 -15 36 0 17 -19 67 -46 121 -8 16 -14 35
-14 42 0 12 -17 51 -42 95 -4 8 -11 22 -14 30 -9 24 -65 144 -75 160 -5 8 -12
22 -15 30 -3 8 -10 22 -15 30 -5 8 -15 29 -23 45 -8 17 -29 53 -45 80 -17 28
-35 59 -41 70 -17 32 -32 55 -85 133 -28 41 -54 81 -60 90 -19 31 -159 217
-205 272 -25 30 -57 68 -70 85 -32 39 -366 373 -405 405 -17 13 -55 45 -85 70
-55 46 -241 186 -272 205 -9 6 -49 32 -90 60 -78 53 -101 68 -133 85 -11 6
-42 24 -70 41 -27 16 -63 37 -80 45 -29 14 -44 22 -82 44 -10 6 -25 13 -33 16
-8 3 -22 10 -30 15 -8 5 -22 12 -30 15 -29 11 -85 37 -100 46 -8 4 -22 11 -30
14 -8 3 -28 12 -43 20 -16 7 -35 14 -42 14 -7 0 -26 6 -42 14 -54 27 -104 46
-121 46 -9 0 -26 7 -36 15 -11 8 -32 15 -46 15 -14 0 -31 5 -37 11 -6 6 -29
15 -50 19 -21 5 -51 13 -68 18 -91 31 -133 42 -160 42 -16 1 -41 7 -55 15 -14
8 -41 14 -61 15 -20 0 -56 7 -79 15 -23 8 -56 15 -73 15 -17 0 -69 7 -116 15
-270 46 -709 59 -961 29z m720 -84 c351 -35 759 -125 995 -219 11 -5 47 -18
80 -31 65 -24 70 -26 160 -65 257 -114 577 -300 780 -454 33 -25 65 -49 70
-53 66 -48 257 -219 361 -323 159 -158 244 -255 401 -460 32 -42 129 -188 194
-292 97 -155 232 -425 285 -568 10 -27 24 -61 31 -75 7 -14 13 -32 13 -41 0
-8 4 -19 8 -25 10 -12 96 -282 113 -354 59 -258 91 -450 109 -655 11 -125 11
-562 -1 -675 -18 -179 -53 -425 -66 -465 -3 -11 -12 -47 -19 -80 -37 -168
-106 -405 -135 -457 -5 -10 -9 -23 -9 -29 0 -6 -6 -25 -14 -42 -8 -18 -31 -72
-51 -122 -87 -217 -323 -638 -436 -779 -5 -6 -43 -56 -85 -111 -247 -321 -606
-659 -924 -866 -236 -155 -449 -269 -665 -359 -55 -22 -108 -45 -117 -50 -10
-6 -23 -10 -29 -10 -6 0 -25 -6 -42 -14 -18 -8 -63 -24 -102 -37 -38 -12 -79
-26 -90 -30 -11 -4 -36 -11 -55 -15 -19 -3 -39 -9 -45 -13 -5 -3 -35 -12 -65
-19 -140 -32 -189 -43 -245 -53 -33 -6 -76 -15 -95 -20 -38 -10 -170 -26 -320
-39 -123 -10 -556 -10 -685 0 -188 16 -402 52 -645 109 -75 17 -343 103 -355
113 -5 4 -16 8 -25 8 -8 1 -33 9 -55 20 -22 11 -46 19 -53 20 -7 0 -20 4 -30
10 -9 5 -39 19 -67 31 -220 95 -621 323 -740 421 -5 4 -41 32 -80 60 -313 231
-672 610 -897 948 -115 173 -261 439 -343 625 -39 90 -41 95 -65 160 -13 33
-26 69 -31 80 -4 11 -21 63 -38 115 -27 83 -42 136 -81 280 -6 19 -19 82 -30
140 -11 58 -25 128 -30 155 -12 57 -25 161 -41 320 -13 134 -6 721 9 785 6 25
16 81 22 125 16 126 52 307 84 425 8 30 22 80 30 110 14 54 59 195 75 235 5
11 18 47 31 80 12 33 35 88 51 123 16 35 29 66 29 70 0 4 33 72 73 152 177
349 369 627 639 921 157 170 450 433 568 508 14 8 27 18 30 22 8 10 129 91
200 134 36 21 71 45 78 52 7 7 18 13 23 13 5 0 28 12 51 26 112 71 550 274
591 274 7 0 17 4 22 8 13 12 249 84 395 122 163 42 406 82 595 99 119 11 596
11 705 1z"/>
<path d="M4290 8389 c-47 -4 -132 -11 -189 -14 -58 -4 -123 -13 -145 -20 -23
-8 -52 -13 -66 -13 -113 3 -718 -156 -762 -200 -7 -7 -23 -12 -36 -12 -21 0
-51 -12 -102 -41 -8 -5 -22 -12 -30 -15 -117 -44 -156 -61 -175 -76 -13 -10
-29 -18 -36 -18 -7 0 -20 -6 -28 -13 -9 -7 -36 -22 -61 -32 -25 -10 -49 -23
-55 -29 -5 -6 -30 -21 -55 -34 -25 -12 -58 -31 -75 -42 -16 -11 -37 -23 -45
-27 -46 -22 -244 -159 -295 -204 -22 -20 -58 -49 -80 -63 -21 -15 -79 -64
-128 -108 -48 -45 -96 -87 -105 -94 -59 -41 -355 -367 -367 -403 -3 -12 -13
-21 -21 -21 -8 0 -18 -10 -23 -22 -5 -13 -25 -41 -45 -63 -20 -22 -36 -45 -36
-52 0 -7 -6 -16 -13 -20 -20 -13 -107 -140 -107 -157 0 -8 -6 -19 -14 -23 -7
-4 -23 -27 -35 -50 -11 -23 -25 -44 -31 -48 -5 -3 -10 -12 -10 -20 0 -8 -11
-30 -25 -50 -13 -20 -50 -87 -80 -148 -31 -62 -60 -119 -65 -127 -19 -33 -40
-89 -40 -104 0 -9 -4 -16 -9 -16 -4 0 -18 -28 -30 -62 -12 -35 -33 -88 -46
-118 -14 -30 -29 -73 -34 -95 -6 -22 -21 -74 -34 -115 -41 -126 -87 -303 -87
-335 0 -17 -5 -46 -10 -65 -6 -19 -15 -64 -20 -100 -6 -36 -14 -89 -20 -119
-5 -30 -12 -96 -14 -145 -3 -50 -10 -134 -14 -186 -11 -107 -5 -404 7 -429 4
-9 9 -68 10 -131 1 -63 5 -126 10 -140 5 -14 17 -79 26 -145 9 -66 21 -131 25
-145 5 -14 14 -50 20 -80 6 -30 16 -68 22 -85 5 -16 14 -48 18 -70 5 -22 25
-87 45 -145 20 -58 38 -114 41 -125 3 -11 9 -29 14 -40 4 -11 18 -49 31 -85
12 -36 28 -72 34 -80 7 -8 22 -40 33 -70 11 -30 35 -82 53 -115 53 -100 79
-154 79 -165 0 -5 4 -10 9 -10 5 0 21 -24 36 -52 54 -108 96 -174 192 -304 18
-24 33 -48 33 -53 0 -5 18 -28 40 -52 22 -24 40 -48 40 -53 0 -5 13 -23 30
-40 16 -17 57 -65 91 -106 35 -41 74 -86 88 -100 14 -14 44 -46 67 -71 22 -25
85 -85 140 -134 54 -49 115 -105 136 -123 20 -18 51 -45 69 -58 19 -13 37 -31
42 -39 4 -8 14 -15 21 -15 7 0 24 -10 37 -23 23 -22 115 -87 124 -87 2 0 19
-13 37 -30 18 -16 36 -30 41 -30 5 0 26 -13 46 -29 39 -30 111 -74 151 -91 13
-6 27 -15 30 -20 7 -11 238 -130 252 -130 6 0 19 -6 27 -13 9 -7 36 -21 61
-31 25 -10 57 -24 72 -32 14 -8 33 -14 41 -14 9 0 28 -6 44 -14 48 -23 97 -44
118 -50 11 -3 67 -22 125 -42 58 -20 125 -40 150 -45 25 -4 88 -19 140 -34
136 -37 422 -84 569 -93 155 -9 521 -8 656 2 165 11 385 43 400 57 5 5 24 9
43 9 42 0 203 38 217 51 5 5 23 9 41 9 18 0 85 18 151 41 65 22 127 43 138 46
11 2 34 11 50 18 58 26 180 74 220 86 22 7 49 21 61 31 11 10 24 18 29 18 14
0 94 41 101 51 3 5 15 9 26 9 12 0 35 11 52 24 17 13 54 35 81 50 69 37 128
72 142 85 7 6 16 11 21 11 5 0 39 23 75 50 36 28 70 50 74 50 4 0 21 14 37 30
16 17 35 30 42 30 7 0 17 6 21 14 4 8 24 24 45 35 20 12 39 28 42 36 3 8 12
15 19 15 8 0 25 12 39 28 14 15 56 52 93 82 37 30 74 65 83 77 8 13 20 23 28
23 7 0 18 8 23 19 6 10 50 58 98 107 49 49 106 111 128 139 22 27 50 58 63 68
12 10 22 24 22 31 0 7 10 22 23 33 12 12 44 53 72 92 27 39 53 71 57 71 4 0 8
5 8 10 0 6 22 41 50 77 28 36 50 72 50 79 0 8 4 14 8 14 4 0 18 19 31 42 58
110 81 152 94 167 7 9 35 61 62 116 27 55 54 107 60 115 7 8 18 33 24 55 7 22
19 54 26 70 24 52 95 238 95 249 0 6 11 40 24 76 13 36 29 83 34 105 6 22 20
72 31 110 11 39 26 104 32 145 6 41 15 84 20 95 14 31 41 228 59 426 21 235 9
635 -26 854 -29 184 -76 410 -88 430 -7 11 -16 40 -19 65 -5 41 -87 300 -107
339 -4 9 -16 36 -25 61 -9 25 -26 63 -36 86 -10 23 -19 45 -19 51 0 14 -192
386 -213 412 -7 9 -21 32 -31 51 -11 19 -22 37 -25 40 -11 9 -51 69 -51 76 0
3 -13 23 -30 44 -16 21 -30 43 -30 49 0 6 -4 11 -9 11 -5 0 -18 15 -30 33 -21
34 -126 168 -201 258 -54 64 -315 325 -391 390 -30 26 -73 63 -96 83 -46 41
-82 68 -158 120 -28 19 -57 41 -63 49 -11 13 -112 79 -173 113 -12 7 -26 17
-32 23 -6 6 -17 11 -23 11 -7 0 -33 14 -57 30 -25 17 -49 30 -54 30 -4 0 -13
8 -20 18 -6 11 -32 25 -57 32 -25 7 -51 19 -57 26 -6 8 -15 14 -19 14 -4 0
-50 20 -101 44 -195 91 -230 106 -247 106 -9 0 -26 7 -36 15 -11 8 -29 15 -41
15 -11 0 -29 6 -40 14 -11 7 -36 17 -55 20 -19 4 -44 11 -55 16 -17 8 -86 29
-205 61 -19 6 -78 19 -130 29 -52 11 -115 24 -140 29 -25 5 -67 13 -95 17 -27
4 -59 9 -70 11 -11 1 -67 7 -125 12 -346 32 -444 35 -610 20z m440 -39 c8 -5
77 -10 152 -11 88 -3 139 -8 142 -15 2 -6 42 -14 88 -17 46 -3 97 -13 113 -21
17 -9 49 -16 73 -16 23 0 50 -4 60 -9 9 -6 38 -13 64 -16 26 -3 50 -10 53 -16
4 -5 23 -9 44 -9 22 0 44 -6 51 -15 7 -9 29 -15 51 -15 20 0 44 -7 53 -15 8
-8 23 -15 33 -15 10 -1 36 -9 58 -20 22 -11 48 -19 57 -20 9 0 20 -4 23 -10 3
-5 15 -10 27 -10 11 0 32 -7 46 -14 15 -8 45 -23 67 -32 22 -9 67 -29 100 -44
33 -16 85 -40 117 -54 31 -13 59 -30 63 -35 3 -6 13 -11 20 -11 8 0 48 -20 88
-45 41 -25 80 -45 86 -45 6 0 11 -4 11 -9 0 -5 9 -12 20 -16 22 -7 226 -140
252 -164 31 -29 47 -41 55 -41 4 0 26 -16 48 -35 22 -19 45 -38 50 -43 160
-118 480 -436 602 -597 20 -27 50 -63 65 -80 15 -16 28 -34 28 -38 0 -4 5 -13
10 -20 50 -59 64 -78 87 -117 14 -25 29 -47 33 -50 3 -3 17 -23 30 -45 13 -22
30 -46 37 -53 7 -7 13 -19 13 -27 0 -7 4 -15 8 -17 9 -3 13 -11 62 -105 14
-26 27 -50 30 -53 7 -7 95 -186 120 -245 12 -27 27 -63 35 -80 33 -74 45 -104
45 -118 0 -9 5 -19 10 -22 6 -3 10 -14 10 -23 0 -9 7 -30 15 -46 8 -15 15 -33
15 -40 1 -6 9 -29 20 -51 11 -22 19 -54 20 -72 0 -17 5 -33 10 -35 6 -2 15
-26 20 -53 17 -93 37 -171 49 -193 6 -12 9 -33 5 -46 -3 -15 1 -38 9 -56 9
-17 19 -67 23 -113 3 -45 11 -87 15 -93 5 -6 12 -65 14 -130 3 -66 10 -141 16
-169 19 -93 -6 -724 -31 -767 -5 -10 -10 -48 -10 -85 0 -43 -6 -79 -16 -98 -9
-16 -18 -54 -19 -83 -2 -29 -8 -59 -13 -65 -5 -7 -13 -36 -17 -64 -4 -29 -10
-55 -15 -58 -4 -3 -11 -25 -14 -50 -4 -24 -11 -47 -17 -50 -5 -4 -9 -18 -9
-33 0 -15 -7 -40 -15 -56 -8 -15 -15 -38 -15 -50 0 -12 -6 -30 -14 -41 -7 -11
-17 -36 -21 -55 -4 -19 -11 -41 -16 -50 -5 -8 -18 -37 -29 -65 -12 -27 -25
-59 -30 -70 -37 -84 -50 -115 -50 -124 0 -6 -4 -11 -10 -11 -5 0 -10 -6 -10
-13 0 -15 -84 -183 -122 -242 -14 -22 -28 -50 -32 -62 -4 -13 -11 -23 -16 -23
-5 0 -12 -10 -16 -22 -3 -12 -40 -71 -80 -130 -70 -103 -82 -120 -111 -153 -7
-7 -13 -17 -13 -20 0 -5 -63 -88 -80 -105 -3 -3 -23 -27 -45 -55 -119 -148
-388 -415 -532 -527 -38 -29 -79 -63 -93 -75 -14 -13 -28 -23 -31 -23 -3 0
-15 -8 -27 -17 -11 -10 -30 -25 -42 -33 -12 -8 -39 -27 -59 -41 -116 -82 -142
-99 -151 -99 -5 0 -10 -4 -10 -10 0 -5 -11 -12 -25 -16 -14 -3 -25 -10 -25
-15 0 -5 -5 -9 -11 -9 -6 0 -44 -19 -83 -43 -70 -42 -151 -83 -291 -147 -162
-74 -201 -90 -218 -90 -9 0 -19 -4 -22 -10 -3 -5 -14 -10 -23 -10 -10 0 -34
-9 -55 -20 -20 -11 -45 -20 -56 -20 -10 0 -32 -7 -47 -15 -16 -8 -40 -15 -54
-15 -14 0 -34 -7 -44 -15 -11 -8 -34 -15 -52 -15 -18 0 -35 -4 -38 -9 -4 -5
-30 -12 -59 -16 -28 -4 -56 -11 -62 -15 -5 -5 -35 -11 -66 -14 -31 -3 -70 -13
-85 -21 -18 -9 -57 -15 -99 -15 -39 0 -76 -5 -82 -11 -7 -7 -67 -13 -145 -16
-73 -3 -138 -9 -144 -14 -15 -12 -472 -13 -487 -1 -7 5 -72 12 -144 15 -73 2
-139 9 -145 15 -7 5 -51 13 -98 17 -47 4 -90 11 -96 16 -7 6 -36 12 -65 15
-30 3 -63 9 -74 14 -11 5 -41 11 -67 15 -26 3 -50 10 -53 14 -2 5 -25 12 -50
15 -24 4 -47 11 -50 15 -2 5 -27 11 -54 15 -28 4 -53 11 -56 16 -3 6 -14 10
-23 10 -9 0 -29 6 -44 14 -15 8 -40 17 -57 21 -17 4 -33 11 -36 16 -4 5 -13 9
-22 9 -8 0 -29 6 -46 14 -96 44 -127 56 -141 56 -9 0 -16 5 -16 10 0 6 -5 10
-12 10 -11 0 -218 99 -228 110 -3 3 -27 16 -53 30 -89 46 -102 53 -115 67 -7
7 -18 13 -23 13 -5 0 -15 5 -22 10 -7 6 -57 40 -112 76 -55 37 -102 69 -105
73 -3 3 -23 19 -46 34 -22 15 -49 35 -60 45 -10 10 -41 35 -69 55 -161 122
-463 426 -598 602 -4 5 -19 24 -33 40 -14 17 -38 48 -52 70 -15 22 -30 42 -34
45 -3 3 -36 50 -72 105 -36 55 -70 105 -76 112 -5 7 -10 17 -10 22 0 5 -6 16
-13 23 -13 13 -47 74 -76 136 -8 17 -19 32 -23 32 -4 0 -8 9 -8 19 0 11 -4 22
-9 25 -5 3 -28 45 -51 93 -45 96 -59 125 -114 255 -9 20 -16 43 -16 51 0 9 -5
19 -10 22 -6 3 -10 14 -10 23 0 9 -7 30 -15 46 -8 15 -15 33 -15 40 0 6 -7 24
-16 41 -8 16 -18 48 -21 72 -3 24 -12 48 -19 54 -8 6 -14 29 -14 50 0 21 -4
40 -9 43 -5 4 -12 30 -16 59 -4 28 -11 57 -15 62 -9 11 -25 98 -41 230 -6 44
-16 89 -22 100 -6 11 -13 76 -15 145 -2 69 -7 136 -12 150 -16 42 -20 441 -5
470 7 14 14 81 17 158 3 81 9 137 16 144 7 7 12 35 12 63 0 27 5 68 11 90 6
22 17 72 25 110 17 90 38 175 48 198 5 10 9 31 10 47 1 16 7 35 14 42 6 6 12
26 12 43 0 17 6 40 14 51 8 11 17 37 21 57 4 21 11 40 16 43 5 3 9 13 9 22 0
9 7 30 15 46 8 15 15 33 15 38 0 8 13 40 50 123 5 11 18 43 30 70 36 83 113
236 152 303 21 34 38 66 38 71 0 5 6 16 13 23 7 7 30 42 52 78 37 62 94 149
105 160 3 3 22 30 43 60 20 30 51 71 67 90 16 19 33 40 37 45 75 99 159 191
320 350 135 134 243 233 272 249 9 5 18 12 21 16 4 5 71 56 195 147 40 30 110
75 165 108 36 21 67 42 70 45 3 4 19 13 35 22 72 36 120 62 125 68 9 10 155
80 168 80 6 0 12 5 12 10 0 6 5 10 11 10 7 0 30 9 53 19 23 11 59 27 81 36 22
9 52 23 67 31 14 7 35 14 46 14 12 0 23 4 27 9 3 5 19 12 36 16 17 4 42 13 57
21 15 8 36 14 47 14 11 0 29 7 39 15 11 8 34 15 52 15 17 0 37 7 44 15 7 9 29
15 51 15 21 0 40 4 43 9 3 4 29 11 58 15 29 4 58 11 64 17 12 10 87 23 229 42
50 7 96 16 104 21 12 8 137 18 385 31 49 3 91 7 94 9 6 7 276 -6 292 -14z"/>
<path d="M4170 7929 c-63 -3 -128 -11 -143 -17 -16 -7 -57 -12 -91 -12 -42 0
-67 -5 -75 -14 -7 -8 -34 -14 -74 -15 -42 -1 -66 -6 -73 -16 -7 -10 -29 -15
-63 -15 -33 0 -58 -6 -67 -15 -9 -8 -32 -15 -52 -15 -20 0 -46 -7 -56 -15 -11
-8 -32 -15 -47 -15 -14 0 -32 -7 -39 -15 -7 -8 -25 -15 -40 -15 -15 0 -41 -7
-56 -15 -16 -8 -36 -15 -44 -15 -8 0 -24 -7 -34 -15 -11 -8 -30 -15 -42 -15
-13 0 -25 -4 -29 -9 -3 -5 -19 -12 -35 -16 -17 -4 -30 -11 -30 -16 0 -5 -6 -9
-12 -9 -16 0 -219 -101 -236 -117 -7 -7 -17 -13 -22 -13 -9 0 -211 -119 -220
-129 -3 -4 -32 -24 -65 -46 -33 -22 -65 -44 -71 -50 -6 -5 -22 -17 -34 -25
-12 -8 -30 -22 -40 -30 -11 -8 -34 -26 -52 -40 -18 -14 -39 -32 -48 -40 -9 -8
-38 -33 -65 -55 -66 -53 -279 -267 -330 -330 -22 -27 -47 -57 -55 -65 -19 -21
-61 -72 -80 -100 -8 -12 -23 -32 -33 -43 -10 -12 -40 -53 -65 -92 -25 -38 -49
-72 -52 -75 -11 -9 -130 -210 -130 -220 0 -5 -6 -15 -13 -22 -18 -19 -117
-216 -117 -233 0 -8 -4 -15 -9 -15 -5 0 -12 -14 -16 -30 -6 -28 -24 -73 -46
-112 -5 -10 -9 -26 -9 -36 0 -10 -7 -27 -15 -38 -8 -10 -15 -33 -15 -50 0 -17
-6 -37 -14 -43 -8 -6 -17 -32 -21 -56 -3 -25 -10 -45 -16 -45 -5 0 -9 -18 -9
-39 0 -22 -7 -46 -15 -55 -9 -9 -15 -33 -15 -62 0 -28 -6 -54 -15 -64 -9 -10
-15 -39 -16 -75 -1 -33 -7 -67 -15 -75 -7 -8 -15 -49 -17 -90 -3 -41 -10 -87
-16 -102 -8 -22 -18 -209 -22 -398 -1 -106 14 -452 22 -475 5 -16 13 -63 16
-104 3 -41 12 -86 20 -101 7 -14 13 -47 13 -75 0 -28 7 -59 15 -69 8 -11 15
-36 15 -57 0 -20 7 -50 15 -65 8 -16 15 -42 15 -59 0 -16 7 -39 15 -49 8 -11
15 -32 15 -47 0 -14 7 -32 15 -39 8 -7 15 -25 15 -40 0 -15 7 -41 15 -56 8
-16 15 -36 15 -44 0 -8 7 -24 15 -34 8 -11 15 -27 15 -35 0 -18 38 -99 51
-107 5 -3 9 -16 9 -30 0 -13 5 -24 10 -24 6 0 10 -6 10 -12 0 -16 72 -162 82
-166 5 -2 8 -8 8 -14 0 -22 227 -376 266 -416 8 -7 14 -16 14 -20 0 -4 13 -21
28 -38 15 -17 47 -55 72 -85 114 -136 218 -243 345 -354 43 -38 86 -77 95 -85
26 -25 101 -84 119 -94 8 -5 25 -18 36 -28 20 -19 54 -42 200 -136 44 -28 85
-55 91 -59 23 -17 76 -43 89 -43 8 0 18 -6 22 -12 11 -18 277 -148 302 -148 6
0 11 -4 11 -10 0 -5 8 -10 18 -10 9 0 29 -6 44 -14 15 -8 41 -17 59 -21 18 -4
39 -14 47 -21 7 -8 26 -14 42 -14 16 0 32 -5 35 -10 3 -6 16 -10 28 -10 12 0
35 -7 51 -15 15 -8 43 -15 61 -15 18 0 38 -7 45 -15 8 -10 30 -15 65 -15 32 0
57 -5 64 -14 6 -7 39 -16 76 -18 36 -3 71 -10 78 -16 6 -5 48 -12 92 -16 44
-4 84 -11 90 -16 14 -11 417 -21 434 -10 17 10 -45 19 -177 26 -59 3 -150 10
-202 15 -52 6 -124 12 -160 15 -36 3 -78 12 -95 19 -16 8 -72 21 -123 30 -52
9 -113 22 -135 30 -23 8 -52 15 -64 15 -12 0 -34 6 -50 14 -15 8 -55 22 -88
32 -33 9 -69 23 -80 30 -11 8 -29 14 -40 14 -11 0 -29 7 -39 15 -11 8 -30 15
-42 15 -12 0 -27 7 -34 15 -7 8 -19 15 -26 15 -8 0 -22 4 -32 10 -9 5 -28 14
-42 20 -14 5 -32 14 -40 19 -47 26 -80 41 -94 41 -9 0 -16 4 -16 10 0 5 -11
12 -25 16 -13 3 -29 12 -36 20 -6 8 -19 14 -29 14 -10 0 -20 7 -24 15 -3 8
-15 15 -26 15 -11 0 -23 7 -26 15 -4 8 -11 15 -16 15 -6 0 -30 14 -55 30 -24
17 -46 30 -49 30 -3 0 -12 6 -19 13 -7 6 -37 28 -65 47 -28 19 -97 71 -152
115 -56 44 -115 91 -132 104 -40 31 -300 293 -348 351 -21 25 -61 74 -89 110
-28 36 -55 67 -60 68 -5 2 -9 10 -9 18 0 8 -5 14 -10 14 -6 0 -14 8 -17 18 -6
14 -82 122 -113 159 -5 7 -10 19 -10 26 0 8 -7 20 -15 27 -8 7 -15 16 -15 21
0 5 -12 28 -27 52 -42 64 -48 75 -94 170 -23 48 -46 87 -51 87 -4 0 -8 6 -8
13 0 12 -51 140 -86 214 -8 17 -18 53 -23 78 -5 25 -15 53 -23 63 -8 9 -20 42
-27 72 -8 30 -22 82 -31 115 -27 88 -47 174 -55 227 -3 26 -10 50 -16 53 -5 4
-9 27 -9 53 0 26 -6 83 -14 127 -24 137 -34 444 -21 660 11 200 14 228 24 280
5 28 10 73 10 101 1 27 6 55 11 60 9 9 32 107 47 204 3 19 11 42 18 50 7 8 16
36 19 62 4 26 11 50 17 53 5 4 9 24 9 46 0 21 4 39 9 39 6 0 20 33 32 73 13
39 29 79 36 88 7 8 13 25 13 36 0 19 14 54 42 103 4 8 11 22 14 30 23 55 72
152 96 186 15 23 28 47 28 53 0 6 14 33 30 59 17 27 30 54 30 60 0 5 7 12 15
16 8 3 15 13 15 21 0 9 6 22 13 30 35 38 137 183 137 195 0 6 4 10 8 10 5 0
23 21 41 46 18 25 50 64 70 88 20 23 48 57 63 76 47 57 204 215 275 276 37 32
91 79 119 104 70 61 82 70 92 70 4 0 21 14 37 30 16 17 34 30 40 30 6 0 25 13
43 29 17 16 41 32 52 36 11 3 20 11 20 16 0 5 9 9 20 9 11 0 23 7 26 15 4 8
12 15 20 15 7 0 17 6 21 13 4 6 29 22 56 35 26 13 47 28 47 33 0 5 8 9 19 9
10 0 24 7 31 15 7 8 21 15 31 15 10 0 20 4 24 9 6 10 210 111 224 111 4 0 35
14 69 30 34 17 68 30 75 30 19 0 119 38 131 50 5 5 25 10 42 10 18 0 35 4 38
9 3 5 25 12 50 15 24 4 52 13 62 21 11 8 35 15 55 15 19 0 44 7 55 15 10 8 39
15 64 15 25 0 58 7 74 15 15 8 49 15 75 15 26 0 74 5 107 11 32 6 146 16 253
23 113 6 196 15 198 21 4 12 -115 13 -297 4z"/>
<path d="M4520 7930 c0 -16 13 -18 175 -26 168 -8 179 -9 320 -26 55 -7 105
-16 111 -20 6 -4 41 -12 79 -18 37 -6 76 -15 86 -20 10 -6 33 -10 51 -10 18 0
42 -7 52 -15 11 -8 31 -15 45 -15 24 -1 94 -22 151 -48 14 -6 52 -18 85 -28
33 -9 65 -21 70 -25 6 -4 39 -18 75 -32 79 -30 289 -133 311 -153 8 -8 25 -14
37 -14 12 0 22 -4 22 -9 0 -5 21 -20 48 -33 26 -13 55 -31 66 -40 10 -9 30
-23 45 -30 39 -20 112 -70 141 -96 14 -13 41 -33 60 -45 19 -11 40 -26 45 -32
6 -6 36 -31 68 -55 56 -42 361 -342 459 -452 26 -29 61 -73 78 -98 16 -25 40
-58 52 -75 68 -88 105 -142 111 -157 3 -10 11 -18 17 -18 5 0 10 -6 10 -13 0
-8 14 -33 30 -55 17 -23 30 -49 30 -57 0 -9 7 -18 15 -21 8 -4 15 -14 15 -24
0 -10 7 -23 15 -30 8 -7 15 -21 15 -32 0 -10 7 -21 15 -24 8 -4 15 -12 15 -19
0 -18 39 -103 50 -110 6 -3 10 -15 10 -25 0 -10 7 -25 15 -34 8 -8 15 -19 15
-25 0 -10 15 -48 46 -116 7 -16 16 -42 20 -58 3 -15 10 -30 15 -33 5 -3 9 -13
9 -22 0 -9 7 -30 15 -46 8 -15 15 -36 15 -45 0 -9 7 -29 15 -45 8 -15 15 -40
15 -55 0 -15 7 -36 15 -47 8 -10 15 -30 15 -43 0 -61 39 -231 51 -231 16 0 10
126 -6 140 -9 8 -15 29 -15 55 0 24 -7 56 -15 71 -8 16 -15 43 -15 61 0 17 -4
34 -9 37 -5 4 -12 24 -16 46 -4 22 -11 42 -16 46 -5 3 -9 18 -9 34 0 16 -6 35
-14 42 -7 8 -17 29 -21 48 -4 19 -11 41 -16 50 -4 8 -15 31 -23 50 -8 19 -24
56 -35 82 -12 26 -21 51 -21 56 0 6 -7 12 -15 16 -8 3 -15 16 -15 29 0 14 -7
30 -15 37 -8 7 -15 20 -15 30 0 10 -7 23 -15 30 -8 7 -15 21 -15 31 0 11 -4
19 -10 19 -5 0 -10 6 -10 14 0 7 -9 25 -20 39 -11 14 -20 32 -20 40 0 9 -4 17
-8 19 -4 2 -26 32 -47 68 -21 36 -41 67 -44 70 -4 3 -28 38 -54 77 -26 40 -53
78 -60 86 -7 7 -23 28 -37 47 -30 43 -38 53 -70 89 -14 15 -50 56 -80 92 -61
70 -212 224 -275 279 -23 19 -63 54 -90 77 -28 23 -61 51 -74 62 -13 12 -27
21 -30 21 -3 0 -22 14 -41 31 -32 28 -115 88 -158 114 -9 5 -30 19 -47 31 -53
36 -185 114 -195 114 -5 0 -15 6 -22 13 -20 18 -156 87 -173 87 -8 0 -15 4
-15 10 0 5 -12 13 -27 16 -16 4 -48 18 -72 31 -24 12 -51 23 -61 23 -9 0 -25
7 -36 15 -10 8 -26 15 -34 15 -8 0 -28 7 -44 15 -15 8 -38 15 -50 15 -12 0
-31 7 -42 15 -10 8 -31 15 -45 15 -14 0 -34 7 -45 15 -10 8 -33 15 -50 15 -16
0 -39 7 -50 15 -10 8 -41 15 -69 15 -30 0 -60 7 -74 16 -12 9 -48 18 -78 20
-30 1 -60 7 -66 12 -7 5 -48 13 -92 17 -44 4 -84 10 -90 15 -16 12 -415 22
-415 10z"/>
<path d="M4330 7836 c-3 -3 -60 -8 -125 -11 -66 -4 -151 -13 -190 -21 -38 -8
-84 -14 -101 -14 -17 0 -51 -7 -74 -15 -23 -8 -54 -15 -69 -15 -14 0 -46 -6
-71 -14 -43 -14 -92 -27 -170 -46 -19 -4 -51 -14 -70 -20 -19 -7 -51 -18 -70
-25 -75 -27 -126 -47 -153 -61 -16 -8 -33 -14 -38 -14 -10 0 -188 -82 -219
-100 -8 -5 -35 -19 -60 -31 -61 -31 -231 -133 -305 -184 -84 -57 -129 -89
-135 -95 -3 -3 -36 -30 -75 -60 -167 -129 -427 -392 -555 -560 -19 -25 -37
-47 -40 -50 -37 -35 -225 -333 -279 -440 -12 -25 -26 -52 -31 -60 -28 -48
-100 -208 -100 -222 0 -9 -4 -19 -10 -23 -5 -3 -14 -20 -19 -38 -5 -18 -26
-77 -46 -132 -20 -55 -41 -116 -45 -135 -11 -44 -28 -111 -45 -175 -55 -208
-95 -542 -95 -795 0 -233 44 -593 96 -787 33 -123 46 -170 56 -198 5 -16 13
-43 18 -60 17 -62 47 -141 76 -198 8 -16 14 -33 14 -38 0 -9 84 -194 100 -219
5 -8 19 -35 31 -60 65 -129 160 -277 290 -450 110 -146 145 -186 304 -345 167
-166 185 -183 360 -318 76 -58 255 -178 310 -208 17 -8 62 -32 100 -53 39 -20
74 -41 79 -47 6 -5 17 -9 25 -9 8 0 22 -6 30 -13 9 -8 52 -28 96 -46 44 -18
89 -37 99 -43 11 -6 31 -14 45 -18 14 -5 51 -18 81 -30 30 -12 69 -25 85 -30
17 -5 44 -13 60 -18 257 -88 683 -152 1005 -152 239 0 614 47 771 96 26 7 56
14 68 14 11 0 38 6 58 14 21 7 65 21 98 31 33 9 77 23 98 31 94 35 124 47 157
61 19 8 49 21 65 28 61 25 170 76 185 85 8 5 38 20 65 34 28 13 66 35 85 48
19 13 43 27 54 31 60 23 389 261 491 356 72 67 274 270 330 332 37 40 234 299
262 344 50 80 143 238 161 275 13 25 27 52 32 60 23 39 100 206 100 217 0 6 6
24 14 40 29 60 60 141 76 198 5 17 13 44 18 60 30 88 42 132 42 149 0 10 7 39
14 65 49 157 96 533 96 771 0 146 -17 382 -36 481 -8 42 -14 87 -14 100 0 24
-19 117 -45 214 -20 78 -35 137 -45 175 -8 33 -15 56 -46 143 -33 90 -46 124
-60 150 -8 16 -14 33 -14 38 0 9 -54 132 -70 159 -5 8 -19 35 -30 60 -12 25
-26 52 -31 60 -5 8 -12 22 -16 30 -16 35 -110 191 -158 261 -67 97 -99 143
-105 149 -3 3 -21 25 -40 50 -126 166 -392 434 -555 560 -38 30 -72 57 -75 60
-21 21 -280 194 -330 219 -25 12 -60 31 -79 42 -65 38 -181 95 -281 137 -19 8
-44 19 -54 25 -11 5 -31 13 -45 18 -14 4 -71 24 -126 44 -55 20 -109 39 -120
41 -22 6 -90 24 -176 48 -31 9 -64 16 -75 16 -10 0 -48 6 -84 14 -121 28 -195
39 -300 48 -144 11 -494 22 -500 14z m320 -68 c193 -7 356 -25 460 -50 25 -6
65 -14 90 -18 25 -4 65 -12 90 -19 128 -36 158 -45 188 -57 18 -8 39 -14 47
-14 8 0 29 -6 47 -14 18 -8 53 -22 78 -31 44 -16 66 -25 142 -59 20 -9 43 -16
51 -16 8 0 20 -7 27 -15 7 -8 18 -15 25 -15 6 0 32 -11 56 -24 24 -14 67 -36
94 -51 68 -35 131 -72 183 -106 24 -16 46 -29 49 -29 3 0 22 -13 43 -30 21
-16 42 -30 48 -30 6 0 12 -3 14 -7 2 -5 19 -19 38 -32 155 -107 502 -435 605
-571 27 -36 59 -76 72 -89 13 -13 33 -40 45 -60 12 -20 41 -62 65 -93 24 -31
43 -59 43 -62 0 -3 13 -24 29 -48 35 -52 72 -116 106 -183 14 -27 30 -57 35
-65 18 -30 100 -209 100 -219 0 -5 6 -22 14 -38 30 -62 62 -144 76 -198 4 -16
12 -41 18 -55 5 -14 17 -52 25 -85 9 -33 22 -87 31 -120 50 -198 72 -350 86
-590 15 -256 -9 -629 -52 -805 -6 -25 -13 -58 -15 -75 -2 -16 -10 -52 -18 -80
-8 -27 -21 -79 -30 -115 -10 -36 -23 -81 -30 -100 -32 -91 -37 -107 -42 -130
-3 -14 -12 -34 -19 -45 -8 -11 -14 -25 -14 -32 0 -7 -13 -42 -30 -76 -16 -35
-30 -71 -30 -79 0 -9 -7 -21 -15 -28 -8 -7 -15 -20 -15 -30 0 -10 -7 -23 -15
-30 -8 -7 -15 -18 -15 -26 0 -7 -13 -35 -28 -61 -16 -26 -31 -55 -35 -63 -5
-8 -13 -24 -20 -35 -7 -11 -28 -46 -47 -79 -56 -93 -177 -272 -203 -298 -7 -7
-39 -47 -72 -88 -75 -96 -347 -368 -445 -446 -41 -32 -81 -65 -89 -72 -8 -8
-33 -25 -55 -39 -23 -15 -67 -46 -98 -70 -31 -23 -59 -43 -62 -43 -3 0 -24
-13 -48 -29 -24 -16 -61 -39 -83 -51 -22 -12 -55 -30 -74 -41 -38 -22 -157
-84 -181 -93 -8 -3 -22 -10 -30 -15 -8 -5 -51 -24 -95 -41 -110 -44 -139 -55
-265 -100 -19 -6 -51 -16 -70 -20 -19 -4 -48 -13 -65 -18 -45 -15 -114 -32
-170 -42 -27 -5 -63 -13 -80 -19 -16 -5 -55 -12 -85 -15 -30 -2 -80 -9 -110
-15 -77 -14 -442 -34 -509 -27 -31 3 -108 8 -171 11 -151 7 -367 40 -505 77
-22 6 -58 14 -80 18 -22 5 -55 13 -72 19 -73 25 -99 33 -128 41 -37 10 -90 29
-130 46 -16 7 -55 22 -85 34 -103 41 -256 115 -335 161 -16 10 -48 27 -70 39
-22 12 -59 35 -83 51 -24 16 -46 29 -49 29 -3 0 -22 14 -43 30 -21 17 -42 30
-48 30 -6 0 -12 3 -14 8 -1 4 -21 19 -44 35 -22 15 -51 37 -63 49 -13 11 -44
37 -70 56 -105 81 -358 330 -469 464 -69 83 -182 237 -217 296 -6 9 -23 36
-38 60 -15 23 -38 61 -50 83 -12 22 -36 66 -54 97 -52 94 -133 265 -133 281 0
5 -6 22 -14 38 -29 60 -60 141 -76 198 -5 17 -14 46 -20 65 -32 91 -40 117
-40 134 0 10 -6 39 -14 65 -22 71 -46 183 -46 213 0 15 -7 58 -15 97 -26 125
-38 523 -21 731 7 98 33 284 47 350 6 25 14 68 19 96 4 28 13 61 19 72 6 11
11 31 11 43 0 22 23 101 46 157 8 18 14 43 14 55 0 12 7 31 15 41 8 11 15 28
15 37 0 10 6 30 14 46 8 15 22 48 31 73 10 25 23 59 31 75 7 17 15 37 18 45 3
8 10 22 15 30 5 8 12 22 15 30 3 8 10 22 15 30 5 8 18 33 29 55 11 22 29 56
40 75 12 19 30 53 42 74 34 62 191 297 225 336 17 19 51 62 75 95 101 135 445
459 610 575 19 13 37 28 38 32 2 4 8 8 14 8 6 0 27 13 47 28 20 16 43 32 51
36 17 8 37 20 95 57 56 36 192 111 225 123 8 3 22 10 30 15 22 13 137 65 190
85 25 10 58 24 73 32 16 8 35 14 42 14 8 0 29 6 47 14 64 26 174 61 243 76 22
5 60 14 85 20 132 33 137 34 330 59 226 29 283 31 580 19z"/>
<path d="M4443 7683 c9 -2 25 -2 35 0 9 3 1 5 -18 5 -19 0 -27 -2 -17 -5z"/>
<path d="M4070 7660 c0 -5 22 -10 49 -10 28 0 53 5 56 10 4 6 -15 10 -49 10
-31 0 -56 -4 -56 -10z"/>
<path d="M4825 7660 c3 -5 22 -10 41 -10 21 0 33 4 29 10 -3 6 -22 10 -41 10
-21 0 -33 -4 -29 -10z"/>
<path d="M3895 7630 c-3 -6 5 -10 19 -10 14 0 28 5 31 10 3 6 -5 10 -19 10
-14 0 -28 -4 -31 -10z"/>
<path d="M5025 7630 c3 -5 15 -10 26 -10 10 0 19 5 19 10 0 6 -12 10 -26 10
-14 0 -23 -4 -19 -10z"/>
<path d="M3770 7600 c0 -5 6 -10 14 -10 8 0 18 5 21 10 3 6 -3 10 -14 10 -12
0 -21 -4 -21 -10z"/>
<path d="M3630 7570 c0 -5 11 -10 25 -10 14 0 25 5 25 10 0 6 -11 10 -25 10
-14 0 -25 -4 -25 -10z"/>
<path d="M5295 7570 c3 -5 20 -10 36 -10 18 0 28 4 24 10 -3 6 -20 10 -36 10
-18 0 -28 -4 -24 -10z"/>
<path d="M5400 7540 c0 -5 14 -10 31 -10 17 0 28 4 24 10 -3 6 -17 10 -31 10
-13 0 -24 -4 -24 -10z"/>
<path d="M3435 7510 c-3 -5 3 -10 14 -10 12 0 21 5 21 10 0 6 -6 10 -14 10 -8
0 -18 -4 -21 -10z"/>
<path d="M3370 7480 c0 -5 6 -10 14 -10 8 0 18 5 21 10 3 6 -3 10 -14 10 -12
0 -21 -4 -21 -10z"/>
<path d="M5590 7480 c0 -5 12 -10 28 -9 24 0 25 1 7 9 -27 12 -35 12 -35 0z"/>
<path d="M5660 7450 c0 -5 7 -10 15 -10 8 0 15 5 15 10 0 6 -7 10 -15 10 -8 0
-15 -4 -15 -10z"/>
<path d="M3210 7420 c0 -5 6 -10 14 -10 8 0 18 5 21 10 3 6 -3 10 -14 10 -12
0 -21 -4 -21 -10z"/>
<path d="M5735 7420 c3 -5 13 -10 21 -10 8 0 14 5 14 10 0 6 -9 10 -21 10 -11
0 -17 -4 -14 -10z"/>
<path d="M5870 7360 c0 -5 7 -10 15 -10 8 0 15 5 15 10 0 6 -7 10 -15 10 -8 0
-15 -4 -15 -10z"/>
<path d="M4293 7313 c-24 -2 -43 -8 -43 -13 0 -4 -39 -10 -87 -13 -49 -3 -99
-8 -113 -11 -14 -3 -45 -8 -70 -12 -25 -3 -62 -12 -83 -20 -20 -8 -50 -14 -66
-14 -36 0 -131 -29 -152 -47 -8 -7 -26 -13 -40 -13 -34 0 -197 -59 -300 -109
-47 -22 -93 -41 -102 -41 -9 0 -19 -4 -22 -10 -3 -5 -27 -20 -53 -33 -26 -13
-63 -34 -82 -46 -19 -11 -55 -31 -78 -42 -24 -11 -52 -29 -63 -40 -10 -10 -23
-19 -28 -19 -4 0 -28 -16 -52 -35 -24 -19 -49 -35 -55 -35 -6 0 -25 -12 -42
-27 -18 -16 -44 -38 -59 -50 -158 -124 -281 -243 -443 -428 -36 -41 -97 -125
-116 -160 -9 -16 -34 -56 -55 -88 -22 -32 -39 -67 -39 -78 0 -10 -4 -19 -9
-19 -11 0 -71 -113 -71 -133 0 -8 -9 -26 -20 -40 -11 -14 -20 -36 -20 -49 0
-12 -7 -32 -15 -42 -8 -11 -15 -34 -15 -52 0 -17 -7 -37 -15 -44 -8 -7 -15
-27 -15 -46 0 -18 -4 -35 -9 -38 -25 -16 -76 -376 -53 -376 14 0 32 79 32 140
0 34 6 73 14 88 7 15 16 51 19 81 4 30 11 59 17 65 5 5 10 27 10 48 0 24 5 41
14 44 8 3 17 23 21 45 4 21 11 41 16 45 5 3 9 16 9 29 0 13 7 30 15 39 8 8 15
24 15 35 0 11 4 22 9 25 5 4 19 27 32 54 20 43 112 203 131 227 4 6 42 57 85
115 142 192 342 388 543 533 36 26 70 51 75 55 6 4 28 19 50 32 22 13 46 30
53 37 7 7 20 13 28 13 8 0 14 3 14 8 0 4 21 19 48 32 26 14 49 27 52 31 10 11
91 49 105 49 8 0 15 3 15 8 0 7 41 27 135 67 42 17 99 43 126 56 9 4 33 11 52
14 20 4 41 13 48 21 6 8 26 14 44 14 20 0 35 6 39 15 3 10 19 15 46 15 24 0
48 7 56 15 9 9 34 15 59 15 23 0 56 7 71 15 16 8 50 15 75 15 28 0 51 6 58 14
9 10 42 16 109 19 53 3 138 10 187 16 98 12 381 7 399 -8 6 -5 57 -11 113 -13
56 -3 108 -9 115 -15 7 -6 42 -13 77 -17 35 -3 69 -10 75 -15 6 -5 35 -12 64
-16 28 -4 52 -10 52 -15 0 -4 23 -10 50 -14 28 -4 50 -11 50 -16 0 -6 13 -10
28 -10 16 0 37 -7 48 -15 10 -8 26 -15 34 -15 8 0 28 -7 44 -15 15 -8 34 -15
42 -15 8 0 40 -13 71 -29 32 -16 92 -46 133 -65 41 -20 82 -41 90 -46 8 -5 56
-32 105 -61 50 -29 92 -55 95 -59 3 -3 23 -17 45 -30 22 -13 46 -30 54 -38 8
-7 26 -21 40 -30 32 -20 37 -24 81 -63 19 -17 64 -55 100 -84 72 -59 188 -176
270 -275 30 -36 67 -78 82 -95 15 -16 28 -34 28 -38 0 -5 6 -14 13 -21 14 -16
20 -25 87 -126 28 -41 55 -82 60 -90 14 -19 29 -46 60 -107 14 -26 27 -50 30
-53 7 -7 34 -63 60 -125 12 -27 27 -63 35 -80 30 -67 45 -104 45 -113 0 -5 11
-30 25 -56 14 -26 25 -53 25 -59 0 -7 9 -29 20 -50 11 -20 20 -47 20 -59 0
-13 7 -32 15 -42 8 -11 15 -34 15 -50 1 -17 7 -42 15 -56 21 -37 21 -328 0
-356 -8 -10 -15 -32 -15 -47 0 -15 -7 -30 -15 -33 -8 -4 -15 -10 -15 -15 0
-34 -165 -209 -197 -209 -7 0 -13 -4 -13 -9 0 -9 -139 -81 -158 -81 -8 0 -20
-7 -28 -15 -9 -8 -27 -15 -42 -15 -15 0 -36 -7 -46 -15 -11 -8 -34 -15 -52
-15 -17 0 -45 -7 -60 -15 -16 -8 -50 -15 -76 -15 -38 0 -48 -4 -48 -16 0 -15
9 -16 73 -9 39 3 77 10 82 15 6 4 27 11 48 15 20 4 40 11 43 16 3 5 18 9 35 9
16 0 58 14 92 30 35 17 67 30 71 30 14 0 152 94 189 129 21 20 45 47 52 61 7
14 22 34 33 46 27 28 55 86 77 158 15 49 17 83 13 213 -3 97 -9 158 -16 165
-7 7 -12 22 -12 35 0 21 -32 121 -49 153 -5 9 -12 31 -16 50 -4 19 -11 41 -16
50 -4 8 -15 32 -24 53 -8 20 -22 52 -30 71 -8 19 -15 37 -15 40 0 8 -58 136
-71 156 -5 8 -14 26 -19 40 -6 14 -15 32 -20 40 -6 8 -24 42 -40 75 -17 33
-40 74 -53 92 -30 43 -79 120 -94 145 -6 12 -25 36 -42 54 -17 18 -31 37 -31
42 0 5 -33 47 -72 93 -40 46 -84 98 -98 114 -46 54 -176 177 -240 226 -24 19
-60 49 -80 67 -19 19 -53 45 -75 59 -22 14 -51 36 -65 49 -14 12 -36 28 -50
33 -31 13 -55 28 -101 64 -20 15 -42 27 -47 27 -6 0 -31 14 -55 30 -25 17 -50
30 -55 30 -6 0 -37 16 -69 35 -32 19 -64 35 -70 35 -7 0 -51 18 -98 40 -48 22
-107 45 -133 51 -26 6 -60 18 -77 26 -16 9 -46 19 -65 23 -19 5 -48 13 -65 18
-53 18 -169 42 -201 42 -18 0 -45 7 -60 15 -19 10 -59 15 -117 15 -49 0 -98 5
-109 11 -21 11 -358 20 -445 12z"/>
<path d="M2810 7210 c0 -5 7 -10 15 -10 8 0 15 5 15 10 0 6 -7 10 -15 10 -8 0
-15 -4 -15 -10z"/>
<path d="M6520 6944 c0 -7 43 -43 52 -44 4 0 -3 11 -16 25 -23 24 -36 31 -36
19z"/>
<path d="M2395 6909 c-4 -6 -5 -13 -2 -16 7 -7 27 6 27 18 0 12 -17 12 -25 -2z"/>
<path d="M1977 6474 c-4 -4 -7 -14 -7 -23 0 -11 3 -12 11 -4 6 6 10 16 7 23
-2 6 -7 8 -11 4z"/>
<path d="M7050 6375 c0 -8 5 -15 10 -15 6 0 10 7 10 15 0 8 -4 15 -10 15 -5 0
-10 -7 -10 -15z"/>
<path d="M7230 6105 c0 -8 5 -15 10 -15 6 0 10 7 10 15 0 8 -4 15 -10 15 -5 0
-10 -7 -10 -15z"/>
<path d="M7320 5945 c0 -8 5 -15 10 -15 6 0 10 7 10 15 0 8 -4 15 -10 15 -5 0
-10 -7 -10 -15z"/>
<path d="M1610 5885 c0 -8 5 -15 10 -15 6 0 10 7 10 15 0 8 -4 15 -10 15 -5 0
-10 -7 -10 -15z"/>
<path d="M1580 5815 c0 -8 5 -15 10 -15 6 0 10 7 10 15 0 8 -4 15 -10 15 -5 0
-10 -7 -10 -15z"/>
<path d="M7410 5745 c0 -8 5 -15 10 -15 6 0 10 7 10 15 0 8 -4 15 -10 15 -5 0
-10 -7 -10 -15z"/>
<path d="M1495 5607 c-4 -10 -5 -21 -1 -24 10 -10 18 4 13 24 -4 17 -4 17 -12
0z"/>
<path d="M7470 5595 c0 -8 5 -15 10 -15 6 0 10 7 10 15 0 8 -4 15 -10 15 -5 0
-10 -7 -10 -15z"/>
<path d="M1438 5444 c-5 -4 -8 -16 -8 -28 0 -14 3 -17 11 -9 6 6 9 19 7 28 -1
9 -6 13 -10 9z"/>
<path d="M7530 5426 c0 -14 5 -26 10 -26 6 0 10 9 10 19 0 11 -4 23 -10 26 -6
4 -10 -5 -10 -19z"/>
<path d="M5318 5421 c-43 -4 -83 -12 -90 -19 -7 -7 -25 -12 -41 -12 -16 0 -41
-6 -55 -14 -15 -7 -47 -23 -72 -35 -124 -60 -241 -161 -325 -282 -35 -50 -95
-168 -95 -186 0 -7 -6 -27 -14 -45 -36 -87 -46 -164 -46 -365 1 -146 5 -208
15 -238 8 -22 15 -49 15 -61 0 -11 7 -29 15 -40 8 -10 15 -31 15 -45 0 -15 7
-32 15 -39 8 -7 15 -20 15 -30 0 -10 7 -23 15 -30 8 -7 15 -17 15 -22 0 -21
169 -218 188 -218 4 0 22 -14 41 -30 39 -34 210 -120 239 -120 11 0 36 -7 55
-15 52 -22 412 -22 464 0 19 8 44 15 55 15 11 0 45 12 76 26 31 14 66 30 77
35 105 47 293 231 334 329 6 14 15 32 20 40 26 46 41 80 41 93 0 8 7 28 15 43
8 16 15 43 15 59 0 17 7 48 15 70 20 57 21 373 0 441 -8 27 -15 59 -15 71 0
12 -6 37 -14 55 -8 18 -24 58 -36 88 -13 30 -25 57 -29 60 -4 3 -11 16 -18 30
-21 49 -132 178 -193 225 -71 55 -224 134 -258 135 -13 0 -36 6 -51 14 -33 18
-285 28 -403 17z m332 -91 c229 -37 432 -193 532 -411 62 -134 78 -215 79
-414 0 -159 -9 -270 -31 -354 -10 -40 -38 -93 -106 -203 -41 -64 -143 -166
-202 -199 -138 -79 -147 -82 -297 -115 -96 -22 -311 -14 -414 15 -119 33 -247
105 -320 181 -96 99 -146 177 -170 260 -8 25 -19 65 -27 90 -42 143 -44 411
-5 561 62 238 220 435 427 529 64 29 96 39 199 59 59 12 260 12 335 1z"/>
<path d="M5340 5146 c-139 -36 -234 -109 -326 -252 -104 -161 -126 -497 -47
-714 9 -25 36 -73 59 -106 163 -233 451 -310 680 -183 119 66 242 226 281 366
27 94 24 352 -6 467 -34 136 -74 210 -155 291 -85 84 -169 128 -273 144 -95
15 -113 14 -213 -13z m243 -74 c37 -10 73 -24 79 -30 7 -7 18 -12 25 -12 21 0
142 -125 154 -159 6 -17 15 -31 20 -31 5 0 9 -9 9 -21 0 -11 6 -33 14 -47 22
-44 46 -193 46 -289 0 -100 -27 -249 -56 -305 -57 -110 -73 -134 -117 -173
-26 -24 -66 -52 -90 -64 -54 -25 -154 -51 -201 -51 -91 0 -227 53 -290 114
-34 32 -116 143 -116 156 0 7 -6 24 -14 38 -60 116 -59 445 1 582 6 14 14 32
17 40 18 47 90 138 138 173 116 87 247 114 381 79z"/>
<path d="M5452 4109 c-13 -5 -70 -12 -125 -16 -72 -5 -93 -9 -72 -14 45 -10
183 -10 189 0 3 4 53 10 111 13 61 3 111 10 117 16 15 15 -184 16 -220 1z"/>
<path d="M2628 5390 c-2 -8 -1 -419 2 -913 l5 -899 183 1 c101 0 186 2 189 4
2 3 4 245 4 539 -1 447 -4 549 -18 633 -9 55 -19 104 -23 108 -4 5 -15 -16
-25 -45 -15 -48 -17 -101 -13 -585 l3 -532 -22 -22 c-17 -17 -37 -24 -81 -27
-69 -5 -118 15 -128 52 -3 14 -2 372 3 796 l8 772 24 19 c19 16 40 19 122 19
128 0 167 -15 210 -81 17 -27 35 -49 39 -49 5 0 12 -9 15 -21 4 -12 55 -94
115 -183 59 -88 113 -172 120 -186 7 -14 32 -51 54 -82 23 -32 54 -79 70 -105
36 -58 158 -243 221 -336 41 -59 120 -137 139 -137 14 0 5 40 -20 86 -45 85
-58 107 -101 172 -24 35 -43 65 -43 68 0 2 -20 33 -45 70 -25 36 -45 67 -45
70 0 8 -44 69 -52 72 -5 2 -8 8 -8 13 0 5 -20 38 -45 75 -25 36 -45 67 -45 69
0 2 -47 74 -105 161 -58 86 -105 158 -105 160 0 1 -19 31 -42 66 -49 72 -63
95 -77 123 -6 11 -18 30 -28 42 -17 21 -26 22 -235 25 -187 3 -217 1 -220 -12z"/>
<path d="M3889 5400 c-4 -25 5 -1166 10 -1200 3 -25 10 -45 15 -45 13 0 34 74
45 165 6 47 11 273 11 513 l0 428 26 26 c23 23 30 25 82 19 69 -8 88 -26 96
-93 3 -27 7 -380 8 -785 3 -684 2 -738 -14 -754 -22 -22 -182 -30 -246 -13
-43 12 -55 25 -115 118 -29 45 -59 90 -138 208 -63 94 -82 124 -180 293 -24
41 -64 107 -90 145 -25 39 -62 95 -82 125 -108 165 -150 223 -207 283 -34 37
-66 67 -71 67 -12 0 -11 -26 0 -48 5 -9 19 -36 30 -59 27 -56 39 -76 89 -151
23 -35 42 -65 42 -67 0 -2 33 -52 72 -112 40 -59 77 -116 83 -125 5 -9 33 -50
60 -90 28 -40 52 -77 54 -83 2 -5 17 -26 32 -46 16 -20 29 -40 29 -43 0 -9 43
-70 53 -74 4 -2 7 -7 7 -12 0 -7 54 -95 77 -126 16 -21 33 -50 43 -71 5 -13
14 -23 19 -23 5 0 11 -8 15 -17 3 -10 27 -52 54 -93 l48 -75 129 -1 c72 -1
163 -3 203 -4 40 -2 75 -1 78 2 7 7 11 1818 4 1818 -45 4 -370 4 -371 0z"/>
<path d="M7560 5331 c0 -11 5 -23 10 -26 6 -3 10 3 10 14 0 11 -4 23 -10 26
-5 3 -10 -3 -10 -14z"/>
<path d="M1405 5327 c-4 -10 -5 -21 -1 -24 10 -10 18 4 13 24 -4 17 -4 17 -12
0z"/>
<path d="M7590 5208 c0 -16 5 -28 10 -28 13 0 13 20 0 40 -8 12 -10 9 -10 -12z"/>
<path d="M1370 5200 c0 -19 3 -21 12 -12 9 9 9 15 0 24 -9 9 -12 7 -12 -12z"/>
<path d="M7620 5051 c0 -17 5 -31 10 -31 6 0 10 11 10 24 0 14 -4 28 -10 31
-6 4 -10 -7 -10 -24z"/>
<path d="M1340 5045 c0 -14 5 -25 10 -25 6 0 10 11 10 25 0 14 -4 25 -10 25
-5 0 -10 -11 -10 -25z"/>
<path d="M1806 4948 c6 -87 35 -176 82 -257 37 -63 137 -156 201 -187 31 -15
63 -31 71 -36 8 -4 22 -11 30 -14 8 -3 27 -12 42 -20 14 -8 35 -14 46 -14 11
0 25 -7 32 -15 7 -8 22 -15 34 -15 11 0 32 -6 46 -13 15 -8 48 -16 75 -20 28
-3 43 -3 35 0 -8 3 -18 12 -23 19 -4 7 -23 16 -42 20 -20 3 -38 10 -41 15 -3
5 -13 9 -22 9 -9 0 -30 7 -46 15 -15 8 -34 15 -42 15 -12 0 -63 22 -117 51
-10 6 -37 20 -60 32 -53 27 -57 30 -123 97 -79 79 -84 85 -84 102 0 9 -7 21
-15 28 -8 7 -15 22 -15 34 0 12 -5 27 -12 34 -7 7 -16 38 -20 70 -10 84 -19
122 -29 128 -6 3 -7 -28 -3 -78z"/>
<path d="M7650 4875 c0 -15 4 -24 10 -20 6 3 10 12 10 20 0 8 -4 17 -10 20 -6
4 -10 -5 -10 -20z"/>
<path d="M1310 4843 c0 -28 3 -34 10 -23 13 20 13 60 0 60 -5 0 -10 -17 -10
-37z"/>
<path d="M7654 4209 c-3 -6 -1 -16 5 -22 8 -8 11 -5 11 11 0 24 -5 28 -16 11z"/>
<path d="M3110 4200 c0 -5 10 -10 23 -10 18 0 19 2 7 10 -19 13 -30 13 -30 0z"/>
<path d="M3165 4180 c-9 -14 10 -20 80 -27 47 -4 65 -3 65 6 0 15 -11 18 -82
24 -32 3 -60 2 -63 -3z"/>
<path d="M7658 4164 c-5 -4 -8 -21 -8 -38 0 -21 3 -27 11 -19 6 6 9 23 7 38
-2 15 -6 23 -10 19z"/>
<path d="M1310 4110 c0 -16 5 -30 10 -30 6 0 10 14 10 30 0 17 -4 30 -10 30
-5 0 -10 -13 -10 -30z"/>
<path d="M4370 4050 c0 -6 35 -10 85 -10 50 0 85 4 85 10 0 6 -35 10 -85 10
-50 0 -85 -4 -85 -10z"/>
<path d="M1340 3931 c0 -16 5 -33 10 -36 6 -4 10 6 10 24 0 16 -4 33 -10 36
-6 4 -10 -6 -10 -24z"/>
<path d="M7620 3919 c0 -17 4 -28 10 -24 6 3 10 17 10 31 0 13 -4 24 -10 24
-5 0 -10 -14 -10 -31z"/>
<path d="M1400 3661 c0 -17 5 -31 10 -31 6 0 10 11 10 24 0 14 -4 28 -10 31
-6 4 -10 -7 -10 -24z"/>
<path d="M7560 3654 c0 -14 4 -23 10 -19 6 3 10 15 10 26 0 10 -4 19 -10 19
-5 0 -10 -12 -10 -26z"/>
<path d="M7530 3554 c0 -14 4 -23 10 -19 6 3 10 15 10 26 0 10 -4 19 -10 19
-5 0 -10 -12 -10 -26z"/>
<path d="M1430 3555 c0 -8 5 -15 10 -15 6 0 10 7 10 15 0 8 -4 15 -10 15 -5 0
-10 -7 -10 -15z"/>
<path d="M7470 3385 c0 -8 5 -15 10 -15 6 0 10 7 10 15 0 8 -4 15 -10 15 -5 0
-10 -7 -10 -15z"/>
<path d="M1520 3305 c0 -8 5 -15 10 -15 6 0 10 7 10 15 0 8 -4 15 -10 15 -5 0
-10 -7 -10 -15z"/>
<path d="M7440 3305 c0 -8 5 -15 10 -15 6 0 10 7 10 15 0 8 -4 15 -10 15 -5 0
-10 -7 -10 -15z"/>
<path d="M1550 3231 c0 -12 5 -21 10 -21 6 0 10 6 10 14 0 8 -4 18 -10 21 -5
3 -10 -3 -10 -14z"/>
<path d="M7387 3174 c-4 -4 -7 -14 -7 -23 0 -11 3 -12 11 -4 6 6 10 16 7 23
-2 6 -7 8 -11 4z"/>
<path d="M7350 3089 c0 -11 5 -17 10 -14 6 3 10 13 10 21 0 8 -4 14 -10 14 -5
0 -10 -9 -10 -21z"/>
<path d="M7320 3035 c0 -8 5 -15 10 -15 6 0 10 7 10 15 0 8 -4 15 -10 15 -5 0
-10 -7 -10 -15z"/>
<path d="M1700 2936 c0 -8 5 -18 10 -21 6 -3 10 3 10 14 0 12 -4 21 -10 21 -5
0 -10 -6 -10 -14z"/>
<path d="M7050 2605 c0 -8 5 -15 10 -15 6 0 10 7 10 15 0 8 -4 15 -10 15 -5 0
-10 -7 -10 -15z"/>
<path d="M2675 1860 c3 -5 13 -10 21 -10 8 0 12 5 9 10 -3 6 -13 10 -21 10 -8
0 -12 -4 -9 -10z"/>
<path d="M2860 1740 c0 -5 7 -10 15 -10 8 0 15 5 15 10 0 6 -7 10 -15 10 -8 0
-15 -4 -15 -10z"/>
<path d="M3020 1650 c0 -5 7 -10 15 -10 8 0 15 5 15 10 0 6 -7 10 -15 10 -8 0
-15 -4 -15 -10z"/>
<path d="M3080 1620 c0 -5 9 -10 21 -10 11 0 17 5 14 10 -3 6 -13 10 -21 10
-8 0 -14 -4 -14 -10z"/>
<path d="M5870 1620 c0 -5 7 -10 15 -10 8 0 15 5 15 10 0 6 -7 10 -15 10 -8 0
-15 -4 -15 -10z"/>
<path d="M3140 1590 c0 -5 7 -10 15 -10 8 0 15 5 15 10 0 6 -7 10 -15 10 -8 0
-15 -4 -15 -10z"/>
<path d="M5735 1560 c-3 -5 3 -10 14 -10 12 0 21 5 21 10 0 6 -6 10 -14 10 -8
0 -18 -4 -21 -10z"/>
<path d="M3360 1500 c0 -5 9 -10 20 -10 11 0 20 5 20 10 0 6 -9 10 -20 10 -11
0 -20 -4 -20 -10z"/>
<path d="M5580 1500 c0 -5 7 -10 15 -10 8 0 15 5 15 10 0 6 -7 10 -15 10 -8 0
-15 -4 -15 -10z"/>
<path d="M3445 1470 c3 -5 13 -10 21 -10 8 0 14 5 14 10 0 6 -9 10 -21 10 -11
0 -17 -4 -14 -10z"/>
<path d="M3540 1440 c0 -5 9 -10 21 -10 11 0 17 5 14 10 -3 6 -13 10 -21 10
-8 0 -14 -4 -14 -10z"/>
<path d="M5400 1440 c0 -5 9 -10 19 -10 11 0 23 5 26 10 4 6 -5 10 -19 10 -14
0 -26 -4 -26 -10z"/>
<path d="M3635 1410 c3 -5 15 -10 26 -10 10 0 19 5 19 10 0 6 -12 10 -26 10
-14 0 -23 -4 -19 -10z"/>
<path d="M5300 1410 c0 -5 7 -10 15 -10 8 0 15 5 15 10 0 6 -7 10 -15 10 -8 0
-15 -4 -15 -10z"/>
<path d="M3755 1380 c28 -12 55 -12 55 0 0 6 -17 10 -37 9 -31 0 -34 -2 -18
-9z"/>
<path d="M5170 1380 c0 -5 11 -10 24 -10 14 0 28 5 31 10 4 6 -7 10 -24 10
-17 0 -31 -4 -31 -10z"/>
<path d="M3915 1350 c3 -5 15 -10 26 -10 10 0 19 5 19 10 0 6 -12 10 -26 10
-14 0 -23 -4 -19 -10z"/>
<path d="M5020 1350 c0 -5 11 -10 24 -10 14 0 28 5 31 10 4 6 -7 10 -24 10
-17 0 -31 -4 -31 -10z"/>
<path d="M4055 1320 c3 -5 28 -10 56 -10 27 0 49 5 49 10 0 6 -25 10 -56 10
-34 0 -53 -4 -49 -10z"/>
<path d="M4820 1320 c0 -5 14 -10 30 -10 17 0 30 5 30 10 0 6 -13 10 -30 10
-16 0 -30 -4 -30 -10z"/>
<path d="M7873 5043 c3 -43 12 -116 18 -163 17 -113 16 -630 -1 -775 -19 -169
-23 -245 -11 -245 17 0 20 14 23 91 1 48 7 80 17 92 21 25 22 848 1 887 -7 13
-15 56 -17 95 -4 81 -8 95 -24 95 -8 0 -10 -22 -6 -77z"/>
<path d="M7853 3839 c-7 -7 -13 -22 -13 -32 0 -30 -31 -190 -41 -209 -9 -18
-49 -170 -49 -187 0 -6 6 -11 14 -11 8 0 17 16 21 38 4 20 10 42 15 47 4 6 11
31 14 57 4 26 11 50 17 53 5 4 9 22 9 42 0 19 7 50 16 68 19 41 16 154 -3 134z"/>
<path d="M7733 3375 c-6 -11 -18 -45 -28 -75 -9 -30 -30 -83 -46 -118 -16 -34
-29 -68 -29 -76 0 -7 -7 -19 -15 -26 -8 -7 -15 -21 -15 -31 0 -10 -4 -20 -9
-23 -5 -4 -19 -27 -31 -54 -12 -26 -26 -55 -31 -65 -6 -10 -20 -37 -31 -60
-12 -23 -27 -49 -33 -57 -7 -8 -27 -42 -45 -75 -18 -33 -38 -64 -44 -70 -7 -5
-18 -24 -25 -42 -7 -17 -28 -49 -47 -70 -19 -21 -34 -43 -34 -48 0 -6 -12 -23
-26 -38 -14 -15 -48 -57 -76 -93 -118 -154 -379 -416 -539 -540 -35 -27 -71
-56 -80 -66 -10 -9 -43 -34 -75 -55 -31 -21 -76 -50 -98 -65 -23 -15 -50 -32
-61 -38 -11 -6 -33 -19 -50 -30 -16 -11 -39 -24 -50 -30 -11 -6 -33 -19 -50
-30 -16 -10 -56 -31 -87 -47 -32 -15 -58 -31 -58 -35 0 -4 -11 -8 -24 -8 -13
0 -29 -7 -36 -15 -7 -8 -17 -15 -22 -15 -9 0 -54 -19 -154 -66 -28 -13 -57
-24 -63 -24 -7 0 -25 -6 -39 -14 -34 -17 -137 -50 -222 -71 -36 -9 -69 -20
-75 -25 -5 -4 -28 -10 -50 -13 -82 -10 -169 -28 -189 -40 -18 -10 -13 -12 42
-15 44 -2 69 2 84 13 13 8 39 15 59 15 20 0 50 7 65 15 16 8 41 15 55 15 15 0
40 7 55 15 16 8 38 15 49 15 11 0 28 7 38 15 11 7 25 11 32 9 7 -3 30 4 51 15
21 12 44 21 51 21 8 0 21 4 31 9 19 11 107 50 137 61 39 15 180 85 185 91 3 4
18 11 33 14 15 4 27 10 27 14 0 4 25 18 55 32 30 13 55 27 55 32 0 4 4 7 9 7
11 0 287 185 309 206 8 9 27 23 41 32 26 17 60 44 91 72 9 8 45 40 80 70 83
71 229 217 300 300 30 35 62 71 70 80 8 10 26 32 40 49 32 42 57 73 70 89 12
13 88 123 105 151 6 9 12 18 15 21 15 15 50 71 50 80 0 5 4 10 9 10 5 0 12 11
15 25 4 14 11 25 16 25 6 0 10 8 10 19 0 10 7 24 15 31 8 7 15 18 15 26 0 7 6
19 13 26 16 17 87 160 87 176 0 6 5 12 10 12 6 0 10 5 10 11 0 11 16 50 45
114 8 17 17 42 21 58 3 15 10 27 15 27 5 0 9 9 9 20 0 11 9 37 20 58 15 29 18
45 12 63 -9 22 -9 23 -19 4z"/>
<path d="M4975 1101 c-18 -8 -85 -13 -335 -27 -105 -6 -120 -9 -120 -23 0 -15
401 -3 419 12 7 6 45 13 85 14 80 4 96 8 96 23 0 12 -115 13 -145 1z"/>
</g>
</svg>
