<svg xmlns="http://www.w3.org/2000/svg" width="313" height="313" viewBox="0 0 313 313" version="1.1">
	<path d="M 104.612 23.462 C 102.474 24.230, 97.074 27.078, 92.612 29.790 C 82.050 36.211, 78.999 37.110, 68.903 36.777 C 61.214 36.524, 60.500 36.662, 60.500 38.402 C 60.500 40.928, 66.875 44.186, 72.966 44.771 C 78.678 45.320, 84.950 42.825, 92.499 37.001 C 98.728 32.195, 103.766 30, 108.567 30 C 112.938 30, 118.532 32.493, 120.515 35.325 C 121.818 37.186, 121.698 37.839, 119.299 41.933 C 116.888 46.048, 116.655 47.335, 116.828 55.607 C 116.979 62.849, 116.694 65.009, 115.450 66.041 C 113.856 67.365, 109.074 67.607, 96.500 67.003 C 91.244 66.750, 88.652 67.108, 86.096 68.439 C 75.716 73.842, 64.711 84.359, 60.917 92.500 C 54.711 105.815, 53.396 119.555, 51.921 186.500 C 50.390 256.012, 51.130 263.497, 60.569 273.945 C 66.066 280.029, 70.817 282.148, 78.846 282.096 C 90.484 282.020, 96.946 278.931, 106.553 268.851 C 114.403 260.614, 119.320 253.488, 132.475 231.283 C 138.411 221.263, 144.823 211.510, 146.724 209.609 C 155.384 200.949, 181.857 190.994, 196.197 191.004 C 204.002 191.009, 206.791 193.225, 215.336 206.205 C 223.672 218.869, 232.589 228.024, 239.721 231.244 C 252.368 236.953, 268.264 230.721, 274.124 217.757 C 276.299 212.946, 276.495 211.228, 276.435 197.500 C 276.362 180.391, 273.996 164.624, 268.488 144.527 C 255.754 98.063, 232.134 61.089, 207.342 48.808 C 199.063 44.707, 198.232 44.504, 190.072 44.574 C 182.410 44.641, 180.622 45.044, 173.224 48.375 C 168.672 50.424, 162.726 52.364, 160.010 52.685 C 152.944 53.522, 146.891 50.158, 133.500 37.952 C 117.484 23.353, 112.237 20.721, 104.612 23.462 M 126 45.851 C 126 46.869, 126.413 49.006, 126.917 50.601 C 127.422 52.195, 128.105 54.737, 128.436 56.250 C 128.948 58.587, 129.544 59, 132.408 59 C 134.262 59, 136.796 58.176, 138.040 57.169 C 141.446 54.410, 140.049 50.621, 134.275 46.959 C 128.886 43.542, 126 43.155, 126 45.851 M 174 60.982 C 142.833 67.448, 121.352 74.552, 97.911 86.148 C 87.968 91.067, 82.530 94.455, 78.384 98.314 L 72.638 103.663 71.885 125.081 C 71.059 148.565, 72.453 230.861, 73.968 248.131 C 74.968 259.527, 75.519 261.350, 78.883 264.394 C 81.951 267.170, 88.602 266.128, 94.402 261.963 C 100.381 257.669, 109.437 246.184, 115.492 235.216 C 123.546 220.627, 132.473 207.796, 138.692 201.869 C 151.841 189.340, 187.493 176.839, 210.500 176.691 C 223.688 176.606, 226.422 179.164, 238.603 202.988 C 242.644 210.891, 247.189 218.241, 249.579 220.738 C 254.867 226.264, 257.863 226.379, 262.967 221.250 C 266.076 218.126, 266.914 216.350, 267.989 210.607 C 269.729 201.321, 268.761 177.891, 266.023 163 C 262.441 143.514, 251.521 113.910, 239.835 92 C 231.412 76.209, 227.970 71.983, 219.241 66.717 C 209.601 60.901, 200.053 56.978, 195.770 57.072 C 193.971 57.112, 184.175 58.871, 174 60.982 M 202.557 81.223 C 197.783 88.038, 205.342 101.563, 211.948 98.028 C 216.265 95.717, 216.238 87.479, 211.896 82.535 C 208.293 78.430, 204.851 77.947, 202.557 81.223 M 225.557 96.223 C 221.216 102.419, 226.320 115, 233.174 115 C 242.282 115, 241.989 101.622, 232.759 95.995 C 228.596 93.456, 227.469 93.492, 225.557 96.223 M 112.889 104.899 C 110.618 106.748, 110.511 107.360, 110.715 117.277 L 110.930 127.711 108.215 128.923 C 106.722 129.590, 103.813 131.291, 101.750 132.704 C 93.751 138.182, 99.176 145.201, 113.159 147.464 C 117.200 148.118, 121.507 152.382, 126.212 160.387 C 129.455 165.906, 132.686 166.521, 136.548 162.354 C 139.435 159.239, 139.761 154.407, 137.513 148.036 C 135.736 143, 136.627 140.674, 140.905 139.183 C 144.919 137.784, 147.351 133.876, 146.532 130.144 C 145.678 126.259, 143.051 124.024, 138.006 122.890 C 131.960 121.532, 129.480 119.514, 126.704 113.694 C 122.491 104.863, 117.128 101.448, 112.889 104.899 M 187.637 105.506 C 181.766 111.377, 187.144 123.400, 195.642 123.400 C 204.168 123.400, 205.648 111.069, 197.783 105.561 C 194.952 103.577, 189.594 103.548, 187.637 105.506 M 214.930 122.250 C 212.171 126.643, 212.728 134.552, 215.982 137.186 C 221.646 141.773, 228.677 137.145, 227.657 129.501 C 227.269 126.594, 226.154 124.613, 223.576 122.251 C 219.121 118.168, 217.493 118.168, 214.930 122.250" stroke="none" fill="#80ff00" fill-rule="evenodd"/>
</svg>