 <svg  version="1.0" xmlns="http://www.w3.org/2000/svg"  width="900.000000pt" height="900.000000pt" viewBox="0 0 900.000000 900.000000"  preserveAspectRatio="xMidYMid meet">  <g transform="translate(0.000000,900.000000) scale(0.100000,-0.100000)" fill="#003c3d" stroke="none"> <path d="M4105 8229 c-27 -5 -88 -13 -135 -18 -47 -5 -105 -13 -130 -19 -55 -13 -140 -30 -200 -41 -25 -4 -61 -12 -80 -18 -102 -32 -138 -42 -167 -48 -18 -4 -35 -11 -38 -16 -4 -5 -19 -9 -34 -9 -15 0 -36 -7 -47 -15 -10 -8 -27 -15 -36 -15 -10 0 -32 -6 -50 -14 -18 -8 -53 -22 -78 -31 -57 -21 -111 -45 -130 -56 -8 -5 -22 -12 -30 -15 -27 -10 -85 -36 -100 -45 -8 -5 -22 -12 -30 -15 -8 -3 -22 -9 -30 -14 -8 -5 -37 -21 -65 -35 -27 -14 -57 -29 -65 -35 -8 -5 -55 -33 -103 -62 -49 -29 -96 -58 -105 -63 -215 -132 -538 -405 -732 -620 -171 -189 -360 -437 -406 -535 -4 -8 -10 -17 -14 -20 -3 -3 -23 -34 -44 -70 -20 -36 -42 -72 -47 -80 -5 -8 -20 -37 -34 -65 -27 -52 -38 -73 -55 -102 -6 -10 -13 -25 -16 -33 -3 -8 -20 -44 -36 -80 -40 -86 -53 -116 -73 -170 -9 -25 -23 -60 -31 -78 -8 -18 -14 -40 -14 -50 0 -9 -7 -26 -15 -36 -8 -11 -15 -32 -15 -47 0 -15 -4 -30 -9 -34 -5 -3 -12 -20 -16 -38 -6 -29 -16 -65 -48 -167 -6 -19 -14 -55 -18 -80 -11 -61 -28 -146 -41 -200 -6 -25 -14 -81 -19 -125 -4 -44 -12 -109 -18 -145 -13 -80 -13 -696 0 -765 5 -27 13 -88 18 -135 5 -47 13 -105 19 -130 13 -55 30 -140 41 -200 7 -44 11 -57 45 -166 9 -29 16 -60 16 -71 0 -11 7 -28 15 -39 8 -10 15 -31 15 -45 0 -14 7 -34 15 -45 8 -10 15 -27 15 -36 0 -10 6 -32 14 -50 8 -18 22 -53 31 -78 21 -57 45 -111 56 -130 5 -8 12 -22 15 -30 10 -27 36 -85 45 -100 5 -8 12 -22 15 -30 3 -8 9 -22 14 -30 5 -8 21 -37 35 -65 14 -27 29 -57 34 -65 5 -8 27 -44 47 -80 21 -36 41 -67 44 -70 4 -3 10 -12 14 -20 28 -60 197 -296 274 -385 192 -220 294 -323 458 -465 103 -89 298 -240 310 -240 3 0 23 -12 43 -28 41 -31 69 -49 91 -59 8 -4 17 -9 20 -13 3 -3 34 -23 70 -44 36 -20 72 -42 80 -47 8 -5 38 -20 65 -34 52 -27 73 -38 103 -55 9 -6 24 -13 32 -16 29 -11 85 -37 100 -46 8 -4 22 -11 30 -14 8 -3 29 -12 45 -19 17 -7 50 -21 75 -30 25 -9 60 -23 78 -31 18 -8 40 -14 50 -14 9 0 26 -7 36 -15 11 -8 31 -15 45 -15 14 0 35 -7 45 -15 11 -8 28 -15 39 -15 11 0 42 -7 71 -16 28 -9 71 -22 96 -30 25 -8 57 -14 71 -14 15 0 46 -7 69 -15 23 -8 57 -15 76 -15 18 0 45 -5 61 -11 15 -6 69 -15 118 -20 50 -5 113 -13 140 -18 65 -13 705 -13 770 0 28 5 91 13 140 18 50 5 103 14 118 20 16 6 43 11 61 11 19 0 53 7 76 15 23 8 54 15 69 15 14 0 46 6 71 14 25 8 68 21 96 30 29 9 60 16 71 16 11 0 28 7 39 15 10 8 31 15 45 15 14 0 34 7 45 15 10 8 27 15 36 15 17 0 67 19 121 46 16 8 35 14 42 14 12 0 51 17 95 42 8 4 22 11 30 14 27 10 85 36 100 45 8 5 22 12 30 15 8 3 22 9 30 14 8 5 38 21 65 35 28 14 57 29 65 34 8 5 44 27 80 47 36 21 67 40 70 43 7 8 42 30 60 38 8 3 31 19 51 35 20 15 40 28 43 28 8 0 178 128 246 185 191 159 366 334 525 525 57 68 185 238 185 246 0 3 12 23 28 43 31 41 49 69 59 91 4 8 9 17 13 20 3 3 23 34 44 70 20 36 42 72 47 80 5 8 20 38 34 65 27 52 38 73 55 102 6 10 13 25 16 33 11 28 66 145 80 172 8 14 14 33 14 41 0 9 6 28 14 44 27 54 46 104 46 121 0 9 7 26 15 36 8 11 15 31 15 45 0 14 7 35 15 45 8 11 15 28 15 39 0 11 7 42 16 71 9 28 22 71 30 96 8 25 14 57 14 71 0 15 7 46 15 69 8 23 15 57 15 76 0 18 5 45 11 61 6 15 15 69 20 118 5 50 13 113 18 140 6 28 10 201 10 385 0 184 -4 358 -10 385 -5 28 -13 91 -18 140 -5 50 -14 103 -20 118 -6 16 -11 43 -11 61 0 19 -7 53 -15 76 -8 23 -15 54 -15 69 0 14 -6 46 -14 71 -8 25 -21 68 -30 96 -9 29 -16 60 -16 71 0 11 -7 28 -15 39 -8 10 -15 31 -15 45 0 14 -7 34 -15 45 -8 10 -15 27 -15 36 0 17 -19 67 -46 121 -8 16 -14 35 -14 44 0 8 -6 27 -14 41 -8 15 -28 59 -46 97 -17 39 -36 77 -41 85 -5 8 -12 22 -15 30 -3 8 -9 22 -14 30 -5 8 -21 38 -35 65 -14 28 -29 57 -34 65 -5 8 -27 44 -47 80 -21 36 -40 67 -43 70 -8 7 -30 42 -38 60 -3 8 -19 31 -35 51 -15 20 -28 40 -28 43 0 10 -143 198 -214 280 -198 233 -400 423 -632 597 -114 85 -203 146 -244 165 -8 4 -17 10 -20 14 -3 3 -34 23 -70 44 -36 20 -72 42 -80 47 -8 5 -37 20 -65 34 -52 27 -73 38 -102 55 -10 6 -25 13 -33 16 -29 11 -85 37 -100 46 -8 4 -22 11 -30 14 -8 3 -28 12 -45 19 -16 7 -50 21 -75 30 -25 9 -60 23 -78 31 -18 8 -40 14 -50 14 -9 0 -26 7 -36 15 -11 8 -32 15 -47 15 -15 0 -30 4 -34 9 -3 5 -20 12 -38 16 -29 6 -65 16 -167 48 -19 6 -55 14 -80 18 -61 11 -146 28 -200 41 -25 6 -81 14 -125 19 -44 4 -109 12 -145 18 -76 12 -691 12 -765 0z m720 -158 c66 -7 147 -17 180 -23 33 -6 85 -15 115 -19 76 -11 157 -28 210 -45 25 -8 53 -14 64 -14 20 0 101 -24 154 -46 18 -8 43 -14 55 -14 12 0 31 -7 41 -15 11 -8 28 -15 38 -15 17 0 68 -20 120 -46 14 -8 33 -14 41 -14 9 0 28 -7 44 -14 15 -8 35 -17 43 -20 8 -3 22 -10 30 -15 8 -5 33 -17 55 -26 22 -10 47 -22 55 -26 8 -5 51 -27 95 -49 44 -23 94 -50 110 -61 17 -10 39 -23 50 -29 11 -6 34 -19 50 -30 17 -11 37 -23 45 -27 8 -3 17 -9 20 -12 11 -13 70 -51 79 -51 5 0 11 -7 15 -15 3 -8 10 -15 16 -15 11 0 205 -142 225 -165 6 -6 55 -50 110 -97 103 -88 248 -235 320 -323 22 -27 47 -57 57 -66 16 -17 160 -207 188 -249 8 -12 20 -28 25 -34 11 -14 12 -15 97 -156 82 -135 73 -119 150 -272 82 -163 108 -222 108 -242 0 -9 5 -16 10 -16 6 0 10 -8 10 -17 0 -10 7 -31 15 -47 8 -15 15 -38 15 -51 0 -12 7 -28 15 -35 8 -7 15 -23 15 -37 0 -13 6 -38 13 -56 8 -18 17 -50 21 -72 4 -22 11 -44 16 -50 4 -5 10 -30 14 -55 4 -24 11 -49 15 -55 5 -5 11 -37 14 -69 3 -32 11 -64 16 -69 6 -6 11 -29 11 -50 0 -22 6 -69 14 -106 51 -234 55 -923 5 -1091 -5 -19 -14 -64 -19 -100 -18 -122 -36 -215 -48 -243 -7 -16 -12 -41 -12 -57 0 -16 -4 -32 -10 -35 -5 -3 -10 -21 -10 -38 0 -18 -6 -41 -14 -52 -7 -11 -16 -37 -20 -57 -4 -21 -11 -38 -16 -38 -6 0 -10 -9 -10 -21 0 -18 -27 -90 -50 -131 -6 -10 -10 -23 -10 -30 0 -22 -149 -327 -207 -424 -24 -39 -43 -75 -43 -78 0 -4 -5 -12 -10 -19 -6 -7 -44 -63 -85 -125 -141 -213 -260 -357 -455 -552 -147 -148 -219 -212 -332 -296 -40 -30 -74 -59 -76 -64 -2 -6 -8 -10 -14 -10 -5 0 -35 -19 -66 -43 -31 -24 -86 -61 -122 -82 -36 -21 -67 -41 -70 -45 -3 -3 -16 -11 -30 -17 -14 -7 -47 -26 -75 -42 -71 -42 -264 -136 -370 -181 -27 -11 -57 -24 -65 -29 -9 -5 -30 -12 -48 -15 -17 -4 -34 -12 -37 -17 -4 -5 -12 -9 -20 -9 -8 0 -26 -5 -42 -12 -33 -14 -102 -35 -158 -49 -22 -5 -49 -14 -60 -19 -11 -5 -42 -14 -70 -20 -27 -6 -79 -18 -115 -26 -323 -73 -783 -102 -1085 -69 -82 8 -188 22 -235 30 -47 9 -97 15 -113 15 -15 0 -35 4 -45 10 -9 5 -42 14 -72 19 -66 12 -163 35 -205 49 -16 5 -57 18 -90 27 -33 10 -74 24 -92 32 -17 7 -38 13 -46 13 -9 0 -18 4 -22 9 -3 5 -20 13 -37 17 -18 3 -39 10 -48 15 -8 4 -31 15 -50 23 -101 42 -143 62 -230 104 -52 26 -127 66 -166 90 -39 23 -77 42 -83 42 -6 0 -11 3 -11 8 0 4 -21 19 -48 35 -73 43 -83 49 -144 95 -31 23 -61 42 -66 42 -6 0 -12 3 -14 8 -1 4 -34 32 -73 62 -240 186 -465 411 -634 634 -29 39 -56 73 -60 76 -3 3 -43 61 -88 130 -45 69 -87 130 -93 137 -5 7 -10 15 -10 19 0 3 -19 39 -43 78 -62 104 -207 401 -207 425 0 5 -8 24 -17 43 -9 18 -22 45 -30 60 -7 14 -13 33 -13 41 0 8 -7 28 -15 43 -8 16 -15 36 -15 45 0 9 -7 30 -15 45 -8 16 -15 43 -15 61 0 17 -4 34 -9 37 -5 3 -12 27 -16 52 -4 26 -10 54 -15 63 -4 9 -13 45 -19 81 -19 113 -39 214 -44 230 -3 8 -8 65 -12 125 -3 61 -10 128 -15 150 -16 65 -12 458 5 571 8 54 15 122 15 151 0 29 7 78 15 110 8 31 15 74 15 95 0 20 4 39 9 43 5 3 13 31 16 63 4 31 13 71 21 89 8 17 14 44 14 60 0 16 4 33 9 39 5 5 14 29 19 54 22 93 35 136 48 162 8 14 14 33 14 41 0 8 7 28 15 43 8 16 15 37 15 47 0 9 5 17 10 17 6 0 10 7 10 16 0 26 133 304 201 419 16 28 35 61 42 75 6 14 15 30 20 35 14 18 77 117 77 121 0 3 5 10 10 17 6 7 54 71 107 142 53 72 99 132 103 135 3 3 37 41 75 85 90 106 230 246 335 335 47 40 87 76 90 80 3 3 55 43 115 88 61 45 115 86 122 92 7 5 15 10 18 10 6 0 66 41 75 51 3 3 12 9 20 12 8 4 29 16 45 27 17 11 39 24 50 30 11 6 34 19 50 30 17 10 56 31 88 47 31 15 57 31 57 35 0 4 8 8 19 8 10 0 24 7 31 15 7 8 19 15 27 15 8 0 27 6 41 14 15 8 34 17 42 20 8 3 22 10 30 14 45 26 83 42 97 42 8 0 27 6 41 14 52 26 103 46 120 46 10 0 27 7 38 15 10 8 29 15 41 15 12 0 37 6 55 14 54 22 207 63 285 76 28 4 66 13 85 18 49 15 160 32 278 43 58 5 134 13 170 18 83 12 420 7 575 -8z"/> <path d="M4315 7890 l-30 -8 38 -2 c37 -1 311 -2 345 -1 14 1 15 3 2 11 -17 11 -311 11 -355 0z"/> <path d="M3995 7860 c-7 -12 89 -12 155 -1 38 7 30 9 -52 10 -55 0 -99 -3 -103 -9z"/> <path d="M4830 7860 c20 -13 163 -13 155 0 -3 6 -43 10 -88 10 -57 0 -77 -3 -67 -10z"/> <path d="M3796 7831 c-27 -10 -9 -18 37 -16 54 3 74 25 22 24 -22 0 -49 -4 -59 -8z"/> <path d="M5090 7830 c0 -5 20 -10 45 -10 25 0 45 5 45 10 0 6 -20 10 -45 10 -25 0 -45 -4 -45 -10z"/> <path d="M3655 7801 c-9 -16 13 -22 52 -15 67 12 72 23 11 24 -31 0 -59 -4 -63 -9z"/> <path d="M5220 7801 c8 -5 37 -12 64 -16 38 -5 47 -4 44 7 -3 8 -25 14 -64 16 -37 1 -54 -1 -44 -7z"/> <path d="M3535 7771 c-9 -15 30 -22 59 -12 14 6 26 13 26 16 0 9 -79 5 -85 -4z"/> <path d="M5370 7770 c20 -13 83 -13 75 0 -3 6 -25 10 -48 10 -31 0 -38 -3 -27 -10z"/> <path d="M3435 7741 c-3 -5 -1 -12 5 -16 13 -8 50 3 50 16 0 12 -47 12 -55 0z"/> <path d="M5476 7740 c14 -14 62 -18 66 -5 2 6 -15 11 -37 13 -29 2 -37 0 -29 -8z"/> <path d="M3343 7713 c-7 -2 -13 -8 -13 -12 0 -10 59 -1 66 10 5 9 -32 11 -53 2z"/> <path d="M5585 7710 c3 -5 17 -10 31 -10 13 0 24 5 24 10 0 6 -14 10 -31 10 -17 0 -28 -4 -24 -10z"/> <path d="M3253 7683 c-25 -9 -13 -23 15 -17 46 11 61 23 27 23 -16 0 -36 -3 -42 -6z"/> <path d="M5675 7680 c3 -5 17 -10 31 -10 13 0 24 5 24 10 0 6 -14 10 -31 10 -17 0 -28 -4 -24 -10z"/> <path d="M3170 7650 c0 -13 30 -13 50 0 11 7 7 10 -17 10 -18 0 -33 -4 -33 -10z"/> <path d="M5765 7650 c3 -5 15 -10 26 -10 10 0 19 5 19 10 0 6 -12 10 -26 10 -14 0 -23 -4 -19 -10z"/> <path d="M3105 7620 c-3 -5 3 -10 15 -10 12 0 18 5 15 10 -3 6 -10 10 -15 10 -5 0 -12 -4 -15 -10z"/> <path d="M5840 7620 c0 -5 12 -10 28 -10 21 0 24 2 12 10 -20 13 -40 13 -40 0z"/> <path d="M3030 7590 c0 -5 6 -10 14 -10 8 0 18 5 21 10 3 6 -3 10 -14 10 -12 0 -21 -4 -21 -10z"/> <path d="M5910 7590 c20 -13 53 -13 45 0 -3 6 -18 10 -33 10 -21 0 -24 -2 -12 -10z"/> <path d="M2955 7560 c-3 -6 5 -10 19 -10 14 0 28 5 31 10 3 6 -5 10 -19 10 -14 0 -28 -4 -31 -10z"/> <path d="M4365 7560 c-4 -6 41 -10 127 -10 90 0 128 3 118 10 -20 13 -237 13 -245 0z"/> <path d="M4635 7560 c-4 -6 5 -10 20 -10 15 0 24 4 20 10 -3 6 -12 10 -20 10 -8 0 -17 -4 -20 -10z"/> <path d="M5975 7560 c3 -5 15 -10 26 -10 10 0 19 5 19 10 0 6 -12 10 -26 10 -14 0 -23 -4 -19 -10z"/> <path d="M2895 7530 c-3 -5 3 -10 14 -10 11 0 23 5 26 10 3 6 -3 10 -14 10 -11 0 -23 -4 -26 -10z"/> <path d="M4045 7530 c-3 -6 5 -10 19 -10 14 0 28 5 31 10 3 6 -5 10 -19 10 -14 0 -28 -4 -31 -10z"/> <path d="M4910 7530 c0 -5 9 -10 21 -10 11 0 17 5 14 10 -3 6 -13 10 -21 10 -8 0 -14 -4 -14 -10z"/> <path d="M3860 7500 c0 -5 20 -10 45 -10 25 0 45 5 45 10 0 6 -20 10 -45 10 -25 0 -45 -4 -45 -10z"/> <path d="M5015 7500 c3 -5 28 -10 56 -10 27 0 49 5 49 10 0 6 -25 10 -56 10 -34 0 -53 -4 -49 -10z"/> <path d="M3735 7470 c-3 -5 3 -10 14 -10 11 0 23 5 26 10 3 6 -3 10 -14 10 -11 0 -23 -4 -26 -10z"/> <path d="M5185 7470 c3 -5 20 -10 36 -10 18 0 28 4 24 10 -3 6 -20 10 -36 10 -18 0 -28 -4 -24 -10z"/> <path d="M6160 7471 c0 -5 7 -12 16 -15 22 -9 24 -8 24 9 0 8 -9 15 -20 15 -11 0 -20 -4 -20 -9z"/> <path d="M2720 7435 c0 -19 11 -19 36 0 18 14 18 14 -8 15 -18 0 -28 -5 -28 -15z"/> <path d="M3620 7440 c0 -5 13 -10 29 -10 17 0 33 5 36 10 4 6 -8 10 -29 10 -20 0 -36 -4 -36 -10z"/> <path d="M5330 7440 c0 -5 7 -10 15 -10 8 0 15 5 15 10 0 6 -7 10 -15 10 -8 0 -15 -4 -15 -10z"/> <path d="M6220 7441 c0 -10 30 -24 37 -17 3 3 2 9 -2 15 -8 13 -35 15 -35 2z"/> <path d="M4160 7420 c0 -5 23 -10 50 -10 28 0 50 5 50 10 0 6 -22 10 -50 10 -27 0 -50 -4 -50 -10z"/> <path d="M4720 7420 c0 -6 28 -10 65 -10 37 0 65 4 65 10 0 6 -28 10 -65 10 -37 0 -65 -4 -65 -10z"/> <path d="M2660 7405 c-7 -8 -18 -15 -26 -15 -7 0 -17 -6 -21 -13 -4 -8 -17 -17 -27 -20 -10 -4 -16 -10 -13 -14 8 -7 113 45 128 64 9 10 7 13 -9 13 -11 0 -25 -7 -32 -15z"/> <path d="M5415 7410 c3 -5 13 -10 21 -10 8 0 14 5 14 10 0 6 -9 10 -21 10 -11 0 -17 -4 -14 -10z"/> <path d="M6270 7410 c0 -5 9 -10 20 -10 11 0 20 5 20 10 0 6 -9 10 -20 10 -11 0 -20 -4 -20 -10z"/> <path d="M3950 7390 c-22 -7 -21 -8 13 -9 20 -1 37 4 37 9 0 11 -14 11 -50 0z"/> <path d="M4980 7390 c0 -5 11 -10 25 -10 14 0 25 5 25 10 0 6 -11 10 -25 10 -14 0 -25 -4 -25 -10z"/> <path d="M3440 7380 c0 -5 6 -10 14 -10 8 0 18 5 21 10 3 6 -3 10 -14 10 -12 0 -21 -4 -21 -10z"/> <path d="M5500 7380 c0 -5 9 -10 20 -10 11 0 20 5 20 10 0 6 -9 10 -20 10 -11 0 -20 -4 -20 -10z"/> <path d="M6320 7381 c0 -10 36 -21 44 -14 3 3 3 10 0 14 -7 12 -44 12 -44 0z"/> <path d="M3810 7360 c-12 -8 -9 -10 12 -10 15 0 30 5 33 10 8 13 -25 13 -45 0z"/> <path d="M5125 7360 c3 -5 17 -10 31 -10 14 0 22 4 19 10 -3 6 -17 10 -31 10 -14 0 -22 -4 -19 -10z"/> <path d="M3370 7350 c0 -5 6 -10 14 -10 8 0 18 5 21 10 3 6 -3 10 -14 10 -12 0 -21 -4 -21 -10z"/> <path d="M5580 7350 c0 -5 9 -10 20 -10 11 0 20 5 20 10 0 6 -9 10 -20 10 -11 0 -20 -4 -20 -10z"/> <path d="M3685 7330 c-4 -6 5 -10 19 -10 14 0 26 5 26 10 0 6 -9 10 -19 10 -11 0 -23 -4 -26 -10z"/> <path d="M5250 7330 c0 -5 12 -10 26 -10 14 0 23 4 19 10 -3 6 -15 10 -26 10 -10 0 -19 -4 -19 -10z"/> <path d="M2514 7315 c-4 -8 -13 -15 -20 -15 -8 0 -17 -7 -20 -15 -4 -8 -12 -15 -19 -15 -8 0 -29 -13 -47 -30 -18 -16 -38 -30 -46 -30 -7 0 -15 -7 -18 -15 -4 -8 -12 -15 -20 -15 -8 0 -14 -4 -14 -10 0 -5 2 -10 4 -10 12 0 76 43 76 51 0 5 7 9 15 9 8 0 15 4 15 8 0 5 29 23 65 41 37 17 65 38 65 46 0 20 -29 19 -36 0z"/> <path d="M3290 7320 c0 -5 9 -10 20 -10 11 0 20 5 20 10 0 6 -9 10 -20 10 -11 0 -20 -4 -20 -10z"/> <path d="M5650 7320 c0 -5 12 -10 26 -10 14 0 23 4 19 10 -3 6 -15 10 -26 10 -10 0 -19 -4 -19 -10z"/> <path d="M6430 7320 c0 -5 7 -10 15 -10 8 0 15 5 15 10 0 6 -7 10 -15 10 -8 0 -15 -4 -15 -10z"/> <path d="M3580 7300 c0 -5 9 -10 19 -10 11 0 23 5 26 10 4 6 -5 10 -19 10 -14 0 -26 -4 -26 -10z"/> <path d="M6470 7291 c0 -8 93 -71 105 -71 3 0 5 5 5 10 0 6 -7 10 -15 10 -8 0 -15 6 -15 14 0 8 -11 17 -25 20 -14 4 -25 11 -25 16 0 6 -7 10 -15 10 -8 0 -15 -4 -15 -9z"/> <path d="M3420 7240 c0 -5 7 -10 15 -10 8 0 15 5 15 10 0 6 -7 10 -15 10 -8 0 -15 -4 -15 -10z"/> <path d="M6610 7202 c0 -4 8 -14 18 -23 32 -27 42 -31 42 -15 0 9 -6 16 -14 16 -8 0 -16 7 -20 15 -6 15 -26 21 -26 7z"/> <path d="M5680 7180 c0 -5 7 -10 15 -10 8 0 15 5 15 10 0 6 -7 10 -15 10 -8 0 -15 -4 -15 -10z"/> <path d="M2745 7170 c-52 -11 -204 -76 -230 -99 -11 -10 -59 -43 -107 -75 -108 -71 -185 -139 -310 -274 -28 -30 -95 -157 -109 -206 -6 -21 -3 -38 11 -66 11 -21 24 -41 30 -45 5 -3 10 -24 10 -46 0 -33 3 -39 20 -39 12 0 32 -7 45 -16 20 -13 23 -21 18 -47 l-6 -31 39 38 c49 48 103 76 146 76 29 0 101 32 257 114 20 10 64 40 98 67 35 27 67 49 73 49 5 0 10 4 10 10 0 5 42 51 93 102 111 111 172 209 169 273 -1 31 4 47 24 68 14 15 31 27 39 27 8 0 15 7 15 15 0 9 -9 15 -23 15 -57 0 -93 69 -44 85 19 6 20 8 4 12 -10 3 -23 0 -30 -5 -7 -5 -35 -13 -63 -17 -42 -5 -52 -4 -57 9 -7 18 -53 20 -122 6z m144 -86 c47 -19 54 -33 45 -93 -20 -135 -296 -403 -535 -517 -114 -55 -136 -63 -198 -70 -78 -8 -107 0 -125 35 -14 26 -14 33 1 72 33 87 119 195 243 304 60 52 126 105 133 105 3 0 35 20 71 45 37 25 70 45 74 45 5 0 35 14 67 30 32 17 68 30 79 31 12 0 37 7 56 14 46 18 43 18 89 -1z"/> <path d="M3205 7150 c-3 -5 3 -10 14 -10 12 0 21 5 21 10 0 6 -6 10 -14 10 -8 0 -18 -4 -21 -10z"/> <path d="M6685 7140 c3 -5 13 -10 21 -10 8 0 12 5 9 10 -3 6 -13 10 -21 10 -8 0 -12 -4 -9 -10z"/> <path d="M3140 7120 c0 -5 9 -10 20 -10 11 0 20 5 20 10 0 6 -9 10 -20 10 -11 0 -20 -4 -20 -10z"/> <path d="M5800 7120 c0 -5 9 -10 20 -10 11 0 20 5 20 10 0 6 -9 10 -20 10 -11 0 -20 -4 -20 -10z"/> <path d="M2224 7106 c-3 -9 -12 -16 -20 -16 -8 0 -14 -4 -14 -10 0 -15 9 -12 36 9 15 12 20 22 14 26 -5 3 -13 -1 -16 -9z"/> <path d="M5960 7030 c0 -5 9 -10 21 -10 11 0 17 5 14 10 -3 6 -13 10 -21 10 -8 0 -14 -4 -14 -10z"/> <path d="M6060 6970 c0 -5 7 -10 15 -10 8 0 15 5 15 10 0 6 -7 10 -15 10 -8 0 -15 -4 -15 -10z"/> <path d="M2010 6305 c0 -8 5 -15 10 -15 6 0 10 7 10 15 0 8 -4 15 -10 15 -5 0 -10 -7 -10 -15z"/> <path d="M1650 5675 c0 -8 5 -15 10 -15 6 0 10 7 10 15 0 8 -4 15 -10 15 -5 0 -10 -7 -10 -15z"/> <path d="M5570 5630 c-83 -19 -140 -39 -186 -66 -69 -40 -178 -130 -249 -205 -34 -35 -93 -95 -133 -132 -40 -38 -72 -70 -72 -72 0 -12 -709 -708 -733 -720 -19 -10 -35 -11 -46 -5 -9 4 -84 78 -167 162 -387 392 -448 443 -593 493 -137 48 -322 26 -444 -52 -139 -90 -258 -242 -283 -365 -7 -31 -14 -60 -17 -65 -9 -15 -8 -104 2 -167 6 -33 29 -98 55 -150 24 -50 47 -106 51 -123 4 -18 11 -36 16 -39 6 -3 14 -17 20 -31 5 -13 13 -21 19 -18 5 3 18 1 29 -4 14 -8 282 -273 589 -583 105 -107 358 -350 388 -374 79 -62 214 -117 320 -129 87 -10 172 10 290 66 95 45 110 57 230 177 71 70 137 131 147 135 9 3 17 13 17 21 0 8 15 25 33 37 33 24 77 66 77 75 0 3 72 78 160 166 88 88 160 164 160 169 0 5 7 9 16 9 9 0 51 36 93 81 42 45 92 96 111 115 19 18 61 58 93 89 31 30 57 62 57 70 0 8 9 15 20 15 13 0 24 10 30 25 5 14 21 30 35 35 15 6 25 17 25 29 0 11 9 23 20 26 11 3 25 15 30 26 6 10 20 19 30 19 12 0 20 7 20 16 0 17 104 123 167 171 26 20 37 23 45 15 18 -18 28 -14 28 12 0 13 6 26 14 29 8 3 17 21 21 39 4 18 11 38 15 43 5 6 13 30 20 55 6 25 22 61 35 80 38 57 58 152 51 245 -12 158 -66 267 -194 393 -47 45 -90 82 -97 82 -7 0 -27 10 -46 23 -35 24 -207 68 -256 66 -15 -1 -44 -5 -63 -9z m194 -106 c28 -9 58 -20 66 -25 8 -4 33 -17 54 -29 50 -27 159 -136 186 -186 12 -21 25 -46 29 -54 20 -35 41 -131 41 -185 0 -84 -39 -195 -93 -268 -35 -45 -1556 -1568 -1603 -1603 -40 -31 -103 -64 -122 -64 -7 0 -35 -7 -62 -16 -96 -31 -253 4 -353 80 -56 42 -1087 1076 -1098 1100 -5 12 -13 28 -18 36 -42 75 -46 93 -45 219 1 131 1 133 60 244 29 53 148 161 215 193 142 69 304 66 429 -8 8 -5 22 -11 31 -14 9 -3 168 -159 355 -347 l339 -342 605 606 c628 629 615 618 740 661 61 21 180 22 244 2z"/> <path d="M7490 5085 c0 -8 5 -15 10 -15 6 0 10 7 10 15 0 8 -4 15 -10 15 -5 0 -10 -7 -10 -15z"/> <path d="M7557 4553 c-11 -10 -8 -63 3 -63 6 0 10 16 10 35 0 36 -2 40 -13 28z"/> <path d="M7554 4416 c-3 -8 -1 -23 5 -33 9 -15 10 -13 11 15 0 34 -7 42 -16 18z"/> <path d="M1732 2400 c13 -20 28 -27 28 -12 0 10 -22 32 -32 32 -5 0 -3 -9 4 -20z"/> <path d="M1800 2325 c0 -8 7 -15 16 -15 14 0 14 3 4 15 -7 8 -14 15 -16 15 -2 0 -4 -7 -4 -15z"/> <path d="M7137 2304 c-4 -4 -7 -14 -7 -23 0 -11 3 -12 11 -4 6 6 10 16 7 23 -2 6 -7 8 -11 4z"/> <path d="M1830 2292 c0 -11 41 -45 47 -39 6 6 -28 47 -39 47 -5 0 -8 -3 -8 -8z"/> <path d="M6965 2130 c-10 -11 -16 -23 -13 -26 7 -6 48 27 48 38 0 14 -17 8 -35 -12z"/> <path d="M2070 2050 c0 -5 6 -10 14 -10 8 0 16 -7 20 -15 3 -8 12 -15 20 -15 8 0 19 -7 24 -16 5 -9 15 -15 21 -13 6 2 -11 21 -38 42 -54 39 -61 43 -61 27z"/> <path d="M6853 2027 c-47 -36 -58 -59 -15 -32 34 23 78 65 66 65 -5 0 -28 -15 -51 -33z"/> <path d="M2205 1944 c15 -14 30 -23 33 -19 7 7 -34 45 -49 45 -7 0 0 -11 16 -26z"/> <path d="M2255 1900 c3 -5 13 -10 21 -10 8 0 17 -7 20 -15 7 -17 34 -21 34 -5 0 6 -6 10 -14 10 -7 0 -19 7 -26 15 -14 17 -45 21 -35 5z"/> <path d="M6650 1871 c0 -5 -9 -13 -20 -16 -11 -3 -20 -11 -20 -16 0 -17 25 -9 49 16 18 20 20 25 7 25 -9 0 -16 -4 -16 -9z"/> <path d="M6513 1773 c-24 -16 -30 -33 -13 -33 10 0 50 36 50 45 0 9 -14 4 -37 -12z"/> <path d="M6425 1710 c-18 -20 -18 -20 13 -4 34 17 40 24 19 24 -8 0 -22 -9 -32 -20z"/> <path d="M2555 1690 c3 -5 13 -10 21 -10 8 0 14 5 14 10 0 6 -9 10 -21 10 -11 0 -17 -4 -14 -10z"/> <path d="M2660 1630 c0 -5 9 -10 21 -10 11 0 17 5 14 10 -3 6 -13 10 -21 10 -8 0 -14 -4 -14 -10z"/> <path d="M6285 1630 c-3 -5 3 -10 14 -10 12 0 21 5 21 10 0 6 -6 10 -14 10 -8 0 -18 -4 -21 -10z"/> <path d="M2715 1600 c3 -5 13 -10 21 -10 8 0 14 5 14 10 0 6 -9 10 -21 10 -11 0 -17 -4 -14 -10z"/> <path d="M6230 1600 c0 -5 6 -10 14 -10 8 0 18 5 21 10 3 6 -3 10 -14 10 -12 0 -21 -4 -21 -10z"/> <path d="M2770 1571 c0 -6 9 -11 20 -11 11 0 23 -7 26 -15 7 -16 44 -21 44 -6 0 5 -12 14 -27 19 -16 5 -36 13 -45 17 -11 4 -18 3 -18 -4z"/> <path d="M6153 1563 c-18 -9 -33 -20 -33 -25 0 -16 30 -7 56 17 31 29 23 31 -23 8z"/> <path d="M2880 1510 c0 -5 12 -10 26 -10 14 0 23 4 19 10 -3 6 -15 10 -26 10 -10 0 -19 -4 -19 -10z"/> <path d="M6060 1510 c0 -5 9 -10 20 -10 11 0 20 5 20 10 0 6 -9 10 -20 10 -11 0 -20 -4 -20 -10z"/> <path d="M2945 1480 c3 -5 13 -10 21 -10 8 0 14 5 14 10 0 6 -9 10 -21 10 -11 0 -17 -4 -14 -10z"/> <path d="M6000 1480 c0 -5 9 -10 20 -10 11 0 20 5 20 10 0 6 -9 10 -20 10 -11 0 -20 -4 -20 -10z"/> <path d="M3015 1450 c3 -5 13 -10 21 -10 8 0 14 5 14 10 0 6 -9 10 -21 10 -11 0 -17 -4 -14 -10z"/> <path d="M5925 1450 c-3 -5 3 -10 14 -10 11 0 23 5 26 10 3 6 -3 10 -14 10 -11 0 -23 -4 -26 -10z"/> <path d="M3085 1430 c-7 -12 18 -24 37 -18 8 3 5 9 -9 16 -14 8 -24 9 -28 2z"/> <path d="M5873 1433 c-18 -6 -16 -23 1 -23 17 0 30 16 19 23 -5 2 -14 2 -20 0z"/> <path d="M5785 1390 c-3 -5 3 -10 14 -10 11 0 23 5 26 10 3 6 -3 10 -14 10 -11 0 -23 -4 -26 -10z"/> <path d="M3245 1360 c3 -5 13 -10 21 -10 8 0 14 5 14 10 0 6 -9 10 -21 10 -11 0 -17 -4 -14 -10z"/> <path d="M5718 1358 c9 -9 15 -9 24 0 9 9 7 12 -12 12 -19 0 -21 -3 -12 -12z"/> <path d="M3420 1300 c0 -5 9 -10 20 -10 11 0 20 5 20 10 0 6 -9 10 -20 10 -11 0 -20 -4 -20 -10z"/> <path d="M5520 1300 c0 -5 9 -10 20 -10 11 0 20 5 20 10 0 6 -9 10 -20 10 -11 0 -20 -4 -20 -10z"/> <path d="M3525 1270 c3 -5 15 -10 26 -10 10 0 19 5 19 10 0 6 -12 10 -26 10 -14 0 -23 -4 -19 -10z"/> <path d="M5410 1270 c0 -5 9 -10 20 -10 11 0 20 5 20 10 0 6 -9 10 -20 10 -11 0 -20 -4 -20 -10z"/> <path d="M3645 1240 c3 -5 20 -10 36 -10 18 0 28 4 24 10 -3 6 -20 10 -36 10 -18 0 -28 -4 -24 -10z"/> <path d="M5275 1240 c-4 -6 6 -10 24 -10 16 0 33 5 36 10 4 6 -6 10 -24 10 -16 0 -33 -4 -36 -10z"/> <path d="M3770 1210 c0 -5 21 -10 46 -10 27 0 43 4 39 10 -3 6 -24 10 -46 10 -21 0 -39 -4 -39 -10z"/> <path d="M5125 1210 c-4 -6 10 -10 34 -10 22 0 43 5 46 10 4 6 -10 10 -34 10 -22 0 -43 -4 -46 -10z"/> <path d="M3950 1180 c0 -6 27 -10 63 -9 44 0 56 3 42 9 -28 12 -105 12 -105 0z"/> <path d="M4930 1180 c-11 -7 -2 -10 33 -10 26 0 47 5 47 10 0 13 -60 13 -80 0z"/> <path d="M4250 1150 c0 -6 85 -10 235 -10 150 0 235 4 235 10 0 6 -85 10 -235 10 -150 0 -235 -4 -235 -10z"/> </g> </svg> 